<svg xmlns="http://www.w3.org/2000/svg" viewBox="0 0 1000 832.12"><defs><style>.cls-1{fill:#eceff1}.cls-2{fill:#fff}.cls-3{fill:#dae1e6}.cls-5{fill:#fafbfc}</style></defs><path class="cls-1" d="M511.7 820.68L149.46 611.55c-29.34-16.94-25.66-46.53 8.22-66.09l345.8-199.65c33.88-19.56 85.13-21.69 114.47-4.75L980.19 550.2c29.34 16.94 25.66 46.53-8.22 66.09l-345.8 199.65c-33.88 19.56-85.17 21.68-114.47 4.74z"/><path class="cls-2" d="M857.14 377.87l-76.06 39-295-170.3c-28.49-16.45-78.26-14.39-111.17 4.6l-291 168L12 381.68v131.81c-.81 11.13 5.45 21.87 19.15 29.78l351.78 203.12c28.49 16.45 78.26 14.38 111.17-4.61l335.82-193.89c17.08-9.86 26.24-22.35 27.13-34.38h.09z"/><path class="cls-3" d="M486.11 246.55c-12.43-7.18-28.93-10.84-46.3-11.09v521.75c19.18-1.2 38.64-6.4 54.29-15.43l335.82-193.89c17.08-9.86 26.24-22.35 27.13-34.38h.09V377.87l-76.06 39z"/><path class="cls-1" d="M89 473l-36.5-21.08c-8.49-4.89-15.36-18-15.36-29.35v-46l67.22 38.81v46c.04 11.34-6.84 16.54-15.36 11.62zm272.06 164.4l-36.5-21.07c-8.49-4.9-15.37-18-15.37-29.35v-46.06l67.23 38.82v46c0 11.36-6.88 16.56-15.36 11.66z"/><path class="cls-1" d="M382.05 602.58L19.81 393.44C-9.53 376.5-5.85 346.91 28 327.35L373.83 127.7C407.71 108.14 459 106 488.3 123l362.24 209.1c29.34 16.94 25.66 46.53-8.22 66.09l-345.8 199.64c-33.88 19.56-85.13 21.69-114.47 4.75z"/><path class="cls-1" d="M870.34 362.77v-28l-95.52 24.38L753.18 409s85.35-21.64 86.55-23.44 30.61-22.79 30.61-22.79zM.08 366.69v-25.51l150.02 50.99-38.47 39.27L.08 366.69z"/><path class="cls-2" d="M382.05 578.85L19.81 369.71C-9.53 352.77-5.85 323.18 28 303.62L373.83 104C407.71 84.42 459 82.29 488.3 99.23l362.24 209.14c29.34 16.94 25.66 46.53-8.22 66.09l-345.8 199.65c-33.88 19.56-85.13 21.68-114.47 4.74z"/><path class="cls-2" d="M3.45 327.1c.46-.86.93-1.7 1.42-2.49a50.53 50.53 0 007.25-26.49v-9.87l19.08 23.59L14 335.43z"/><path class="cls-1" d="M12.17 330.02v-71.55l145.86 49.57-37.4 84.93-108.46-62.95z"/><path class="cls-1" d="M383.52 489.54L31.35 286.21C2.83 269.74 6.41 241 39.34 222L375.53 27.86c32.94-19 82.76-21.08 111.29-4.61L839 226.57c28.53 16.47 25 45.24-8 64.26L494.81 484.92c-32.93 19.02-82.76 21.08-111.29 4.62z"/><path class="cls-1" d="M858.25 258.4l.06-.07c0-.79 0-1.57-.06-2.34v-3.79l-.31.08c-4.92-41-58.78-59.19-58.78-59.19l-28.7 51.32 48.07 17.93-26.71 6.81-305-176.09c-28.53-16.47-78.35-14.4-111.29 4.62L39.34 291.77c-32.93 19-36.51 47.79-8 64.26l352.18 203.32c28.53 16.47 78.36 14.41 111.29-4.61L831 360.64c17.08-9.86 26.24-22.34 27.15-34.36l.1-.07z"/><path class="cls-3" d="M858.25 252.2l-.31.08c-4.92-41-58.78-59.19-58.78-59.19l-28.7 51.32L486.82 93.06c-12.68-7.32-29.56-11-47.3-11.1v488.28c19.5-1.09 39.37-6.31 55.29-15.5L831 360.64c17.08-9.86 26.24-22.34 27.15-34.36l.1-.07V258.4l.06-.07c0-.79 0-1.57-.06-2.34z"/><path class="cls-1" d="M12.17 258.47c0-24.93 28.12-45.81 56.83-64.51s55.66 21.75 55.66 21.75L59 282.24z"/><path class="cls-3" d="M463.12 417.17l-79.55-1.38a78.77 78.77 0 00-46.71 71.95v44.6l.06.1 46.6 26.91c19.13 11 47.82 13.74 74.59 8.6z"/><path class="cls-3" d="M406.9 417.17l79.55-1.38a78.77 78.77 0 0146.71 71.95v44.6l-.06.1-46.61 26.91c-19.12 11-47.82 13.74-74.58 8.6z"/><path class="cls-2" d="M387.88 437.15L65.4 251c-26.12-15.08-22.84-41.42 7.32-58.83L380.56 14.41C410.72-3 456.35-4.9 482.47 10.18l322.47 186.18c26.12 15.08 22.84 41.42-7.32 58.84L489.78 432.93c-30.16 17.41-75.78 19.3-101.9 4.22z"/><path class="cls-1" d="M395.26 404.6L119.61 245.45c-22.33-12.89-19.53-35.4 6.25-50.29L389 43.23c25.78-14.88 64.78-16.5 87.11-3.61l275.66 159.15c22.33 12.89 19.53 35.41-6.25 50.3L482.37 401c-25.78 14.88-64.78 16.49-87.11 3.6z"/><path class="cls-2" d="M751.77 214.23L476.12 55.08c-22.33-12.89-61.33-11.27-87.12 3.61L125.86 210.62c-10.39 6-17 13.24-19.83 20.59 2.16 5.33 6.66 10.25 13.58 14.24L395.26 404.6c22.33 12.89 61.33 11.28 87.11-3.61l263.15-151.92c10.39-6 17-13.25 19.83-20.6-2.16-5.33-6.66-10.25-13.58-14.24z"/><path d="M505.2 185.9L465.46 163a2.37 2.37 0 00-2.36 0l-44 25.42a2.37 2.37 0 01-2.36 0l-44-25.42a2.37 2.37 0 00-2.36 0l-39.82 22.9a2.36 2.36 0 000 4.09l39.32 22.7a2.36 2.36 0 010 4.09l-39.32 22.7a2.36 2.36 0 000 4.09l39.74 22.94a2.37 2.37 0 002.36 0l44-25.42a2.37 2.37 0 012.36 0l44 25.42a2.37 2.37 0 002.36 0l39.74-22.95a2.36 2.36 0 000-4.08l-39.32-22.7a2.36 2.36 0 010-4.09L505.2 190a2.36 2.36 0 000-4.1z" fill="#ff3d00"/><path class="cls-5" d="M254.71 610.21l-109.18-63c-7.62-4.41-13.81-16.22-13.81-26.39v-26c0-10.17 6.19-14.85 13.81-10.44l109.18 63c7.63 4.4 13.81 16.22 13.81 26.38v26c0 10.18-6.18 14.86-13.81 10.45z"/><path class="cls-1" d="M265.24 580.2l-133.18-76.89c-5.53-3.19-10.41-3.3-14.73-1.18s-7.26 6.1-7.26 13.43v34.75c0 11.79 2.26 23.63 18.52 32.07l133.18 76.9c5.53 3.19 10.07 4 14.61 1.85s7.38-6.77 7.38-14.1v-34.76c0-11.78-3.39-22.13-18.52-32.07zm5.94 63.13v1a3.91 3.91 0 01-5.86 2.94h-.05l-133.21-76.96c-5.19-3-9.41-10.31-9.41-16.3v-34.75a6.24 6.24 0 01.12-1.19 4 4 0 015.77-2.71h.05l133.18 76.89c5.19 3 9.41 10.31 9.41 16.3z"/><path class="cls-5" d="M160 519.94c-2.89-1.47-6-.48-7.35 3.47-1.14 3.28.2 6.7 4.39 8.84 3.18 1.63 4.09 13.1 4.09 13.1l42 22.74 11-28.32-51-18.66z"/><path class="cls-5" d="M238.71 579.14a21.25 21.25 0 01-5.74-3.93c-4.79-4.71.91-12.53 6.86-9.4l.27.14c3.14 1.71-1.65-11.63-1.65-11.63l-42-22.74-9.11 29.86 50.95 18.66z"/></svg>