<svg xmlns="http://www.w3.org/2000/svg" viewBox="0 0 779.69 1000"><defs><style>.cls-3{fill:#38454c}.cls-4{fill:#485960}.cls-6{fill:#586a74}</style></defs><path d="M528.19 993.8L89.31 743.12c-15.9-9.18-13.9-25.22 4.46-35.82L266 607.87c18.36-10.6 46.14-11.75 62-2.57L766.9 856c15.9 9.18 13.91 25.22-4.45 35.82l-172.22 99.41c-18.36 10.6-46.14 11.77-62.04 2.57z" fill="#eceff1"/><path d="M736.7 217.51l-349.18-201a123.4 123.4 0 00-123.13 0l-95 54.7 130.42 105.23V448c0 31.66 19.25 68.43 43 82.14l254.55 147L616.94 845l148.39-85.45c8.81-5.41 14.36-17.47 14.36-34.46V299.65c0-31.65-19.24-68.44-42.99-82.14z" fill="#ffab00"/><path class="cls-3" d="M575.73 875.6L161.34 636.36c-25-14.42-45.22-53.11-45.22-86.42V102.41c0-33.31 20.24-48.61 45.22-34.19l414.39 239.24c25 14.42 45.22 53.11 45.22 86.42v447.53c.05 33.31-20.24 48.59-45.22 34.19z"/><path class="cls-3" d="M90.87 87.85l42.62-22.79 116.39 64.34 362.5 237.96-15.24 79.58-314.26-143.88L90.87 87.85zm475.22 810.78l38.9-20.36-4.59-110.31-47.18-96.88 12.87 227.55z"/><path class="cls-4" d="M393.15 828.92l-35.39-20.43a9 9 0 01-4.48-7.76v-17.49l46.73 27V825a4.57 4.57 0 01-6.86 3.92z"/><path class="cls-4" d="M430.58 809.93l-33.12 19.12-22.01-12.7 33.12-19.12 22.01 12.7zm-224.53-86.16l-35.39-20.43a9 9 0 01-4.48-7.76v-17.49l46.73 27v14.74a4.57 4.57 0 01-6.86 3.94z"/><path class="cls-4" d="M243.61 704.71l-33.12 19.13-22.01-12.71 33.12-19.12 22.01 12.7z"/><path class="cls-4" d="M534.28 898L119.89 658.72c-25-14.42-45.22-53.11-45.22-86.42V124.77c0-33.31 20.25-48.61 45.22-34.19l414.39 239.24c25 14.43 45.23 53.11 45.23 86.42v447.53c0 33.31-20.25 48.61-45.23 34.23z"/><path class="cls-3" d="M518.33 346.11L144.45 130.25c-11-6.34-20.94-6.3-28.28-1.12l-104 59.66 91.52 35.85v250.78c0 30.05 18.27 65 40.8 78l353.75 242.72L518.33 854a38.61 38.61 0 0039.27-.72l1.53-.94V424.07c0-30.07-18.26-64.95-40.8-77.96z"/><path d="M431.18 475l-8.95-52.45a30.33 30.33 0 00-14.56-21.05L40.75 189.66c-22.12-12.77-45.09 3.55-40 30.27l80.39 361.3A33.66 33.66 0 0096.62 603s17.06 4.69 24.73.26l14.17-8.17L454.58 775z" fill="#7b8e98"/><path class="cls-3" d="M152.09 596.5V391.82l270.12 88.67c-4.8-30.75-15.77-56.07-35.23-67.31L38 211C18.51 199.74.8 214.18 4.33 237.61l75.36 356.33a28.85 28.85 0 0042.09 19.2z"/><path class="cls-4" d="M130.2 626.35l365.4 187.38-62.46-326.36c-4.81-30.76-17.85-58.06-37.3-69.29L130.2 264.48z"/><path class="cls-6" d="M279.73 678.71L170.12 615.5a23.6 23.6 0 01-11.8-20.43V280.75l136.12 78.8v310.67a9.81 9.81 0 01-14.71 8.49zm52.32 31.43l108.2 62.71a9.81 9.81 0 0014.75-8.49V605.61l-21.86-118.39c-4.81-30.75-15.85-56.19-35.23-68.76l-77.66-43.94v315.19a23.59 23.59 0 0011.8 20.43z"/><path class="cls-4" d="M270.69 523.57L254.24 458a19 19 0 00-3.64-7.2L234.5 431v-1.15c7 1 11.16-4.84 10-14s-7.29-19.12-14.73-23.86-14.13-3-16 4.27 1.52 17.91 8.19 25.59v1.85l-16.26.06a4 4 0 00-4.07 2.77l-16.74 45.17c-1.26 4 1 10.36 5 14.35s8.53 4.25 10.13.56l10.31-27.73c.07-.22.28-.28.52-.15a1.25 1.25 0 01.51.74l2.16 31.12a3.19 3.19 0 01-.24.83l-16.72 81a13.3 13.3 0 001.11 7.62 18.51 18.51 0 005.07 7 13.44 13.44 0 001.67 1.18c3.73 2.17 7 1.1 7.85-2.58l14.43-69.74 2.16 1.24 14.42 86.4c.78 4.74 4.06 9.7 7.85 11.89a9.77 9.77 0 001.67.75c2.09.69 3.91.3 5.07-1.09s1.56-3.68 1.11-6.34l-16-95.94 1.42-32.46a.31.31 0 01.46-.27 1.1 1.1 0 01.56.69l10.13 40.4c1.1 4.43 4.19 8.77 7.66 10.75a7.48 7.48 0 003.6 1.11c3.63-.23 5.27-4.22 3.89-9.46z"/><path d="M412.14 585.5l8 36.8c1 4.54 4.13 9.1 7.71 11.16a8.74 8.74 0 002.21.92c4.27 1 6.73-2.67 5.51-8.3l-8.37-38.4a17.18 17.18 0 00-1.18-3.5l-24.52-54.09a16.94 16.94 0 00-6.62-7.71l-4.88-2.82-.93-6.94c6.57-.31 9.74-7.35 7.59-16.86s-9.05-18.86-16.49-22.39-13.39-.25-14.24 7.84 3.65 18.76 10.76 25.55l.74 5.55c-3.13-1.82-6-1.37-7.29 1.15l-16.56 31.8-11.41 7c-3.08 1.93-3 7.87.23 13.28s8.3 8.24 11.39 6.33l12.35-7.59a4.11 4.11 0 001.51-1.81l8.18-15.64 3.17 34.29-28.08 60.71-2.32-2.5c-4.08-4.37-8.79-4.91-10.54-1.21s.15 10.23 4.22 14.59l9.72 10.46a10.35 10.35 0 006.18 3.57 4.07 4.07 0 004.39-2.45L392 600.62l20.42 83.23-2.48-.06c-2.61-.11-4.36 1.77-4.61 4.92s1 7.11 3.39 10.36 5.4 5.33 8 5.42l9 .35c3.69.15 5.51-3.66 4.23-8.85l-24.78-100.81a14 14 0 00-.62-2l-4.65-34.48z" fill="#73e02e"/><path class="cls-3" d="M481.93 742.5l15.53 78.71A53.33 53.33 0 00518.33 854l26.75-3-9.34-109z"/><ellipse class="cls-6" cx="301.32" cy="726.46" rx="10.05" ry="17.41" transform="rotate(-30 301.326 726.46)"/><ellipse cx="449.91" cy="150.37" rx="69.58" ry="40.17" fill="#ffc44c"/></svg>