<svg xmlns="http://www.w3.org/2000/svg" viewBox="0 0 1000 700.31"><defs><style>.cls-1{isolation:isolate}.cls-2{fill:#eceff1}.cls-3{fill:#ff6f00}.cls-4{fill:#ff7d19}.cls-8{fill:#cfd8dc}.cls-9{fill:#38454c}.cls-10{fill:#485960}.cls-11{fill:#b0bec5}.cls-12{fill:#dae1e6}.cls-13{fill:#586a74}</style></defs><g class="cls-1"><path class="cls-2" d="M587.38 106.29C529.11 72.65 440.7 59.24 358.12 76l-184.75 37.6C58.58 137-1.48 209.9 39.23 276.46c11.42 18.68 29.55 34.87 52.27 48 58.26 33.63 146.69 47.05 229.27 30.24l184.75-37.6c114.78-23.36 174.84-96.26 134.13-162.82-11.42-18.68-29.55-34.87-52.27-48"/></g><g class="cls-1"><path class="cls-3" d="M560.92 66.59C502.65 33 414.24 19.54 331.66 36.35L146.91 74C32.12 97.31-27.94 170.2 12.77 236.77c11.42 18.68 29.55 34.86 52.27 48C123.3 318.39 211.72 331.8 294.31 315l184.75-37.6C593.84 254 653.9 181.14 613.19 114.58c-11.42-18.68-29.55-34.87-52.27-48"/></g><path class="cls-4" d="M0 166.03h16.98v27.88H0z"/><g class="cls-1"><path d="M521 110.63a16.72 16.72 0 01-6-5.54c-4.7-7.68 2.23-16.09 15.48-18.78 9.53-1.94 19.73-.4 26.46 3.49a16.74 16.74 0 016 5.53c4.7 7.68-2.24 16.1-15.48 18.79-9.53 1.94-19.73.39-26.45-3.49m39.88-73.14C502.66 3.85 414.24-9.57 331.66 7.24l-184.75 37.6C32.12 68.2-27.94 141.1 12.77 207.66c11.41 18.68 29.55 34.87 52.27 48 58.26 33.64 146.68 47 229.27 30.25l184.75-37.6C593.84 224.94 653.89 152 613.2 85.47c-11.43-18.68-29.55-34.86-52.28-48" fill="#ffb77f"/><path d="M556.94 89.8c-6.73-3.89-16.93-5.43-26.46-3.49C517.23 89 510.3 97.41 515 105.09a16.72 16.72 0 006 5.54c6.72 3.88 16.92 5.43 26.45 3.49 13.28-2.69 20.22-11.12 15.55-18.79a16.74 16.74 0 00-6-5.53" fill="#fcbbd8"/></g><g class="cls-1"><path class="cls-3" d="M221.33 279.91c-55.81 0-110.36-13-149.68-35.72-21.58-12.46-37.6-27.07-47.6-43.43-12.42-20.31-14.18-41-5.22-61.61 16.37-37.61 65.24-68 130.72-81.35L334.3 20.21a353.36 353.36 0 0170.34-7c55.8 0 110.35 13 149.67 35.72 21.58 12.46 37.6 27.07 47.6 43.42 12.42 20.32 14.18 41 5.22 61.62-16.37 37.61-65.24 68-130.71 81.34l-184.75 37.6a353.36 353.36 0 01-70.34 7z"/></g><path class="cls-4" d="M554.31 49c-36.5-21.07-86.13-33.79-137.69-35.51V247.5l59.8-12.17C541.89 222 590.76 191.6 607.13 154c9-20.57 7.2-41.3-5.22-61.62-10-16.38-26.02-30.97-47.6-43.38z"/><path d="M476.42 235.33C541.89 222 590.76 191.6 607.13 154a64.28 64.28 0 005.6-26.37 77 77 0 00-8.18-18.05c-10-16.35-26-31-47.6-43.42-39.31-22.7-93.87-35.72-149.67-35.72a353.26 353.26 0 00-70.33 7L152.2 75C86.72 88.33 37.85 118.74 21.47 156.35a64.06 64.06 0 00-5.59 26.36 76.38 76.38 0 008.17 18c10 16.36 26 31 47.6 43.43 39.32 22.7 93.87 35.71 149.68 35.72a353.36 353.36 0 0070.34-7z" fill="#ff9a4c"/><path class="cls-3" d="M556.94 89.8c-6.73-3.89-16.93-5.43-26.46-3.49C517.23 89 510.3 97.41 515 105.09a16.72 16.72 0 006 5.54c6.72 3.88 16.92 5.43 26.45 3.49 13.28-2.69 20.22-11.12 15.55-18.79a16.74 16.74 0 00-6-5.53"/><g class="cls-1"><path class="cls-4" d="M266.81 115a7.82 7.82 0 01-4.54-.83 4 4 0 01-.92-.72L259.1 111c-6.66 3.33-8.73 9-4.44 13.71a14.29 14.29 0 003.51 2.77c4.63 2.67 11.33 3.83 17.74 3l-2.05-2.26c-1.3-1.45-.33-3.24 2.15-4a14.67 14.67 0 01-10.79-1 6.64 6.64 0 01-1.63-1.29c-2.26-2.5-.82-5.51 3.22-7m18.72-3.49c-4.51-2.6-11-3.77-17.22-3.11l2.1 2.31c1.15 1.28.53 2.82-1.34 3.69a14.37 14.37 0 019.17 1.36 6.69 6.69 0 011.64 1.29c2.37 2.62.67 5.82-3.87 7.19a8.12 8.12 0 016 .53 4 4 0 01.92.72l2.08 2.3c6.34-3.36 8.24-8.89 4-13.51a14.43 14.43 0 00-3.51-2.77m52.62 58.16c-4.7-2.71-11.52-3.87-18-3l2.08 2.3c1.3 1.44.34 3.24-2.15 4a8.12 8.12 0 01-6-.53 3.71 3.71 0 01-.91-.72l-2.05-2.26c-6.18 3.36-8 8.82-3.86 13.4a14.43 14.43 0 003.51 2.77c4.63 2.67 11.34 3.83 17.75 3.05l-2-2.26c-1.32-1.45-.35-3.24 2.14-4a14.49 14.49 0 01-10.74-1 7 7 0 01-1.68-1.32c-2.38-2.63-.66-5.82 3.87-7.19a14.61 14.61 0 0110.79 1 6.85 6.85 0 011.63 1.28c2.32 2.56.66 5.83-3.87 7.2a8.08 8.08 0 016 .53 3.75 3.75 0 01.92.73l2.07 2.29c6.34-3.36 8.24-8.89 4.05-13.52a14.39 14.39 0 00-3.5-2.76"/><path class="cls-4" d="M282 124.76a8.12 8.12 0 00-6-.53c-2.48.75-3.45 2.54-2.15 4l2.05 2.26 35.18 38.88 2.05 2.26a3.71 3.71 0 00.91.72 8.12 8.12 0 006 .53c2.49-.75 3.45-2.55 2.15-4l-2.08-2.3-35.11-38.8-2.08-2.3a4 4 0 00-.92-.72m61.9-8.52a41.71 41.71 0 00-10.06-4.06L316 107.39a31.2 31.2 0 01-7.28-3 18.14 18.14 0 01-4.42-3.47l-2.74-3a21.45 21.45 0 00-5.21-4.1c-8.75-5-22.49-6.51-34-3l-6.79 2.06c-5.55 1.67-7.7 5.66-4.78 8.88l8.32 9.2 2.25 2.49a4 4 0 00.92.72 7.82 7.82 0 004.54.83 8.66 8.66 0 001.45-.29 5.93 5.93 0 00.81-.31c1.87-.87 2.49-2.41 1.34-3.69l-2.1-2.31-8.37-9.24c-.29-.33-.08-.73.49-.9l6-1.81 1.43 1.55a3.72 3.72 0 00.92.72 8.07 8.07 0 006 .54c2.49-.75 3.47-2.55 2.16-4l-.29-.33a27.53 27.53 0 0112.58 3.2 14.09 14.09 0 013.39 2.68l2.73 3a25.72 25.72 0 006.25 4.89 43.39 43.39 0 0010.29 4.16l17.89 4.79a29 29 0 017.22 2.87 18.76 18.76 0 014.49 3.54l19.37 21.41c2.91 3.21 4.11 6.77 3.38 10.43l-3.46 17.35c-1 4.8.61 9.59 4.47 13.86l2 2.23c.31.33.09.73-.47.9l-16.63 5.36a5.36 5.36 0 01-3.91-.37 2.18 2.18 0 01-.57-.45l-8.09-8.93-2.07-2.29a3.75 3.75 0 00-.92-.73 8.08 8.08 0 00-6-.53c-2.49.75-3.46 2.54-2.14 4l2 2.26 8.11 9a10.39 10.39 0 002.45 1.94 20.24 20.24 0 0015.55 1.24h.23l16.62-5.36c5.37-1.71 7.46-5.6 4.62-8.75l-2.09-2.3c-2.9-3.21-4.11-6.78-3.38-10.43l3.52-17.29c1-4.81-.62-9.59-4.47-13.86l-19.37-21.4a26.22 26.22 0 00-6.38-5"/></g><g class="cls-1"><path class="cls-4" d="M148 109.05a13.42 13.42 0 00-9.89-.91c-4.19 1.23-5.85 4.19-3.71 6.62L253 249.67a6.3 6.3 0 001.58 1.27 13.5 13.5 0 009.88.91c4.19-1.23 5.85-4.2 3.71-6.63L149.54 110.31a6.27 6.27 0 00-1.58-1.26"/></g><g class="cls-1"><path class="cls-4" d="M123.61 136.64a13.52 13.52 0 00-9.89-.91c-4.19 1.23-5.85 4.2-3.71 6.63l92.18 104.93a6.27 6.27 0 001.58 1.26 13.44 13.44 0 009.88.92c4.19-1.23 5.86-4.2 3.72-6.63L125.18 137.9a6.21 6.21 0 00-1.57-1.26"/></g><path class="cls-8" d="M161.93 621v7.91c0 14.38-11.63 17.7-28 16.16-9.46-.89-37.57-5.81-37.57-5.81-6.72-3.89-31.49-20-35.06-26.65-3.21-5.92 2.73-25.34 4.49-33.56 4-18.68 15.75-23.6 28.32-16.31l51.34 29.7A33.12 33.12 0 01161.93 621z"/><path class="cls-8" d="M108.38 626v3.95a9.34 9.34 0 01-14 8.07L70.6 624.25a20.67 20.67 0 01-10.31-17.87V605a9.42 9.42 0 0114.15-8.16l25.68 14.87a16.59 16.59 0 018.26 14.29z"/><path class="cls-2" d="M60.29 656.41a25.75 25.75 0 0112.81-22.14l281.54-163.36 18.85-43a71.34 71.34 0 01-35.95-62.55c0-24.32.17-63.44.17-63.44L659.93 180.2a94.16 94.16 0 0193.48.19l223.77 66.49c17.85 56 15.27 56.16 15.27 64.56 0 19.09-5.32 47.16-24.25 58L666.4 545c-54.76 31.31-135.4 15.91-194.56-8.8a20.21 20.21 0 00-17.84 1.13l-74 42.48a41 41 0 00-4.29-.25c-11.15 0-22.78 9.84-22.78 15.74l-56.05 32.19a15.55 15.55 0 01-12.29 1.41 39.48 39.48 0 00-11.48-1.68c-12.8 0-26.14 11.28-26.14 18.08v.84a16.62 16.62 0 01-8.39 14.8l-11.75 6.71a31.19 31.19 0 01-14.59 3.9 14.85 14.85 0 00-13.81 8.89 14.12 14.12 0 01-5.94 6.93l-5.92 3.36a71.62 71.62 0 01-37.38 9.57l-45.08-1.21a58.31 58.31 0 01-18.79-3.64l-7.77-2.89a26.49 26.49 0 01-17.31-24.92z"/><path class="cls-9" d="M320 365.33c.37 1.81.84 3.39 1.31 5.17a50.63 50.63 0 001.68 5.14 76.32 76.32 0 004.73 10.07 76.32 76.32 0 01-4.72-10.07c-.61-1.7-1.18-3.46-1.68-5.14s-.98-3.44-1.32-5.17zm-1.36-10.22a64.75 64.75 0 00.81 7.62 64.75 64.75 0 01-.81-7.62c0 1.63.08 3.34.19 4.75.21 2.9.6 6.75 1 9.62.33 2.23.85 5.22 1.36 7.42.65 2.82 1.62 6.71 2.48 9.53.69 2.25 1.66 5.13 2.5 7.28 1.16 3 2.84 6.82 4.18 9.69 2.08 4.36 5.49 9.88 8 14a98.58 98.58 0 007.7 10.36 141.84 141.84 0 0011 11.74c4.5 4.1 10.78 9.25 15.68 12.86 3.89 2.85 9.35 6.16 13.42 8.63-7.61-4.43-12.65-15.78-12.65-71.4v-12.13c-27.72-21.11-54.93-9.43-54.93-37.28v14.93zm376 65.05l264.91-153c27-16.87 40.5 2.75 40.45-14v12.11a27.47 27.47 0 01-.12 3.14c.09-1.05.12-2.09.12-3.14a91.41 91.41 0 01-3.81 26.44c-.64 2.3-1.76 5.27-2.62 7.5-.62 1.59-1.68 3.66-2.3 5.22-1.07 2.4-2.87 5.44-4.19 7.7A85.73 85.73 0 01973 329.62a89.89 89.89 0 01-7.87 6.71c-3.11 2.32-7.47 5-10.76 7.17L928 358.84l-26.5 15.3-26.5 15.29-26.5 15.29L822 420l-26.62 15.29-26.43 15.27-26.49 15.3L716 481.18l-26.48 15.29c-3.52 2-8.31 4.55-12 6.33-3.35 1.68-7.95 3.77-11.48 5.13-6.71 2.62-15.91 5.74-22.82 7.94-3.64 1.16-8.61 2.32-12.3 3.22-8.39 2-20.73 4.08-24.72 4.54s-8.78 1.14-12.57 1.39-8.86.69-12.66.85-8.91.29-12.72.27c-7.62 0-17.77-.6-25.37-1.12-3.81-.25-8.86-1-12.66-1.41C525 523 513 520.89 505.28 519c-3.87-.94-9-2.18-12.84-3.35-6.88-2.22-16-5.42-22.69-8-3.8-1.48-8.72-3.86-12.38-5.67-3.12-1.55-7.13-3.85-10.17-5.49-7.64-4.43-12.6-15.78-12.66-31.77l1.14-64.23c73.56 42.7 192.15 94.81 258.96 19.67z"/><path class="cls-10" d="M769.89 77.29a20.67 20.67 0 012.15-.82 20.67 20.67 0 00-2.15.82zM950.61 174a2.21 2.21 0 00.77.16 3.48 3.48 0 00-.79-.26zm-2.18-.36a7.9 7.9 0 001.05.08 7.46 7.46 0 00-1.07-.17zm4.26 1a6.42 6.42 0 001 .38c-.32-.15-.63-.35-1-.48zm-6.53-1a5.42 5.42 0 001.51-.14h-1.53zm-1.48 0l-.89.1zM939 175.4zM781.61 75.83a5.21 5.21 0 001.07.26c-.35-.12-.7-.26-1.09-.36zm2 .67a8.23 8.23 0 001 .36c-.29-.15-.59-.32-.89-.46zm-3.35-1l-.86-.13zm-3.11-.08a6.05 6.05 0 001-.05h-1zm-2.35.29a8.68 8.68 0 001-.17 2.7 2.7 0 01-1 .12zm-2.43.62c.4-.14.79-.2 1.16-.36-.39.11-.78.17-1.18.31zm-110.77-.71a6.07 6.07 0 00.85.06 2.09 2.09 0 00-.85-.12zm-3.7-.16l-.55.1zm-2.14.36l-.44.13zm-2 .65c-.29.1-.54.27-.82.39.23-.12.48-.29.77-.39zm6.43-1a7.21 7.21 0 00-.93 0 7.21 7.21 0 01.88-.02zM318.58 340.11C318.64 368 337 395.78 373.51 417l61 35.51c73.59 42.77 193.32 42.77 267.38 0l264.86-152.86c22.17-12.83 33.2-29.61 33.2-46.39-.12-3.54-.29-8.26-.77-11.75a93.32 93.32 0 00-2.6-12.69c-.57-2.16-1.58-5.07-2.35-7.2-.52-1.61-1.53-3.71-2.2-5.28a65.45 65.45 0 00-3.59-7.09c-1.31-2.28-3.19-5.16-4.67-7.31-1-1.48-2.52-3.34-3.62-4.75a88.77 88.77 0 00-17-15.95c-2.43-1.81-5.89-3.94-8.49-5.52l-16.9-9.81-16.9-9.82-16.9-9.82-16.96-9.83-16.9-9.82-16.9-9.82-16.86-9.8-16.9-9.82-16.9-9.83-16.9-9.82c-1.78-1-4.13-2.3-5.94-3.2-2.12-1-5-2.42-7.15-3.28-3.78-1.47-8.88-3.27-12.74-4.51-2-.67-4.94-1.33-7-1.86-3.78-.94-11.13-2.24-13.59-2.52-2-.24-4.79-.62-6.85-.77-4.08-.27-9.55-.61-13.65-.61a149.76 149.76 0 00-33.88 3.85c-2 .5-4.72 1.12-6.71 1.76-3.88 1.22-9 3-12.77 4.45a108.1 108.1 0 00-13.55 6.62l-26.5 15.31L598.78 108l-26.5 15.29-26.48 15.19-26.5 15.29-26.49 15.29-26.48 15.31-26.5 15.29-26.48 15.28-26.5 15.31c-5.41 3.36-12.62 8-17.66 11.75a153.39 153.39 0 00-12.38 10.54 146.93 146.93 0 00-12.05 13.14A135.81 135.81 0 00336 278.1a108.76 108.76 0 00-5.86 10.7c-.94 2.1-2.26 4.89-3.08 7-1.16 3-2.66 7-3.53 10.07-.6 2.2-1.44 5-1.93 7.23-.64 2.91-1.41 6.8-1.83 9.75-.33 2.22-.69 5.21-.84 7.44-.18 2.99-.34 6.93-.35 9.82z"/><path class="cls-9" d="M669.8 78.6c27-15.61 70.71-15.61 97.56 0l169 98.21c26.84 15.56 26.69 40.92-.32 56.49L671.18 386.24c-57.06 32.93-149.37 32.93-206 0l-61-35.44c-56.66-32.9-56.39-86.36.67-119.26zM434.51 452.53v12.12l-61-35.44v-12.12z"/><path class="cls-10" d="M835.8 182.64l-109.24-62.9a8.58 8.58 0 01.24-15L754.29 90a8.58 8.58 0 018.39.12l114.71 65.72a8.58 8.58 0 01-.19 15l-22.27 12.06a19.46 19.46 0 01-19.13-.23z"/><path class="cls-8" d="M81.32 558.75l280.61-162.1 88.79 91.55-49.14 28.53a34.33 34.33 0 00-4.86-.35c-11.94 0-21.62 5.84-21.62 13a8.62 8.62 0 00.4 2.47l-58.16 33.76a20.77 20.77 0 01-14.74 2.49 44.32 44.32 0 00-9.67-1c-15.79 0-28.53 7.72-28.53 17.24v1.29a16.17 16.17 0 01-8.4 15.58l-21.38 12.4a16.47 16.47 0 00-9.75-3.1c-8.39 0-15.1 5.89-15.1 13.16a11.67 11.67 0 00.68 4l-24.26 13.3a58.94 58.94 0 01-33.4 7l-32.19-2.7-39-50.74a20.51 20.51 0 01-.3-35.78z"/><path class="cls-8" d="M459.85 462.07V471a21 21 0 01-31.5 18.23l-53.43-30.93a46.38 46.38 0 01-23.18-40.18v-3.21a21.22 21.22 0 0131.89-18.36l57.63 33.35a37.2 37.2 0 0118.59 32.17z"/><path class="cls-2" d="M180 606.28a24.3 24.3 0 01-24.4 0l-61-35.39a6.28 6.28 0 010-10.88l266.25-154.53a22 22 0 0122 0L437 438a12.07 12.07 0 01-.2 20.81z"/><path class="cls-11" d="M396.05 516.91c-9.92 0-18.47 3.36-21.22 12.49v-53c5.46-3.12 22.83 2.18 25.73 4.3v31.88a4.36 4.36 0 01-1.33 3.1 4.31 4.31 0 01-3.13 1.23z"/><path class="cls-12" d="M339.2 461.48l6-3.52a16.22 16.22 0 0116.29-.11l39.09 22.39a38 38 0 00-3.84-.22c-11.94 0-21.62 5.83-21.62 13a7.62 7.62 0 00.25 1.84l-36.06-20.81a7.32 7.32 0 01-.09-12.6z"/><path class="cls-11" d="M231.07 614.57c-9.93 0-18.46 3.36-21.21 12.49V574c5.45-3.1 22.82 2.2 25.71 4.3v31.88a4.37 4.37 0 01-4.45 4.33z"/><path class="cls-12" d="M174.23 559.14l6-3.53a16.19 16.19 0 0116.29-.1l39.07 22.39a37.66 37.66 0 00-3.83-.22c-11.94 0-21.61 5.83-21.61 13 0 .62-.42.94-.27 1.54l-35.58-20.43a7.31 7.31 0 01-.07-12.65z"/><path class="cls-11" d="M308 531v33.81a3.82 3.82 0 01-4.62 3.76 45.27 45.27 0 00-10.44-1.21c-14.13 0-25.84 6.2-28.16 14.3v-55.89C281 524.06 295.77 525 308 531z"/><path class="cls-12" d="M215.92 506.71l16.68-9.57a16.22 16.22 0 0116.28-.1l59.71 34.2a43.65 43.65 0 00-15.1-2.6c-15.79 0-28.53 7.72-28.53 17.24a9.54 9.54 0 00.15 1.68L216 519.4a7.32 7.32 0 01-.07-12.69z"/><path class="cls-10" d="M579.61 162.77a12.23 12.23 0 00.1 1.91 22.79 22.79 0 00.61 3.36 35.53 35.53 0 001.36 3.69 25.74 25.74 0 001.68 3 25 25 0 002 2.66c1 1.11 2.08 2.16 3.19 3.16a34.6 34.6 0 005.34 3.74 5.24 5.24 0 01-2.42-4.86c-7.9-4.6-11.88-10.64-11.9-16.7z"/><path class="cls-10" d="M579.6 160.12v2.65c0 6.06 4 12.1 11.95 16.78v-2.64c-7.94-4.69-11.94-10.74-11.95-16.79zm271.81 76.96c0 5.71-3.87 11.57-10.63 16q-1.24.78-2.61 1.56l-27.36 15.79v2.65a5.2 5.2 0 01-2.43 4.91l5.69-3.36L817 273l2.84-1.68 2.85-1.68 2.84-1.67 2.85-1.68 2.84-1.68 2.85-1.68 2.84-1.68a45.49 45.49 0 004.11-2.38 28.44 28.44 0 002.31-1.93 23.36 23.36 0 002.25-2.32c.57-.73 1.8-2.33 2.5-3.35a20.89 20.89 0 001.51-2.84 29.1 29.1 0 001.13-3.17 11.9 11.9 0 00.42-1.88c.08-.57.15-1.24.2-1.91a13.06 13.06 0 00.11-1.65v-.05a.43.43 0 010-.05zm-43 40.92zm-55.75-4.89v-2.65l-161.11-93.61.01 2.63 161.1 93.63z"/><path class="cls-10" d="M752.66 273.13L591.55 179.5a5.23 5.23 0 002.43 4.85l16.11 9.36 16.11 9.37 16.11 9.36 16.11 9.37 16.12 9.36 16.11 9.37 16.11 9.35 16.11 9.38 16.13 9.36 16.09 9.37a5.26 5.26 0 01-2.43-4.87z"/><path class="cls-9" d="M604.05 139.76c-9.23 5.32-9.28 14-.1 19.31l161.11 93.63c9.16 5.32 24.13 5.32 33.36 0l28.45-16.43c9.23-5.32 9.28-14 .12-19.31l-161.11-93.63c-9.15-5.34-24.14-5.34-33.37 0z"/><path class="cls-10" d="M755.09 278a42.31 42.31 0 005 2.52c1.49.58 3.49 1.29 5 1.78.84.26 2 .55 2.85.77a62 62 0 0013.7 1.56 54.34 54.34 0 0026.74-6.63 5.23 5.23 0 002.4-4.89c-16.12 9.3-42.14 9.3-58.16 0a5.3 5.3 0 002.47 4.89z"/><path class="cls-10" d="M752.66 270.46v2.65c16 9.3 42 9.3 58.15 0v-2.65c-16.11 9.31-42.14 9.31-58.15 0zm-261.05-56.91a15.26 15.26 0 00.08 1.91 21.15 21.15 0 00.62 3.36 36.87 36.87 0 001.36 3.68 24.85 24.85 0 001.68 3 21.25 21.25 0 002 2.67c.89 1 2.18 2.25 3.17 3.16a34.89 34.89 0 005.35 3.74 5.25 5.25 0 01-2.43-4.87c-7.84-4.53-11.88-10.62-11.88-16.68z"/><path class="cls-10" d="M491.61 210.9v2.65c0 6.06 4 12.1 11.93 16.78v-2.63c-7.91-4.7-11.93-10.7-11.93-16.8zM748.9 312.37zm-84.2 11.53l-161.11-93.63a5.24 5.24 0 002.43 4.86l16.11 9.37 16.11 9.36 16.12 9.37 16.11 9.36 16.09 9.41 16.11 9.36 16.11 9.37 16.11 9.27 16.11 9.4 16.11 9.36a5.25 5.25 0 01-2.41-4.86zm-161.11-93.63L664.7 323.9v-2.64l-161.11-93.63v2.64z"/><path class="cls-9" d="M516.11 190.54c-9.23 5.32-9.28 14-.12 19.32l161.11 93.63c9.17 5.34 24.14 5.34 33.35 0L739 287.06c9.23-5.32 9.28-14 .12-19.32L578 174.11c-9.17-5.33-24.15-5.33-33.37 0z"/><path class="cls-10" d="M751.35 304.76l-.05.07-28.45 16.42c-16.11 9.32-42.16 9.32-58.15 0l-.05 2.66s.8 3.83 2.47 4.86a42.94 42.94 0 005 2.52c1.48.59 3.49 1.29 5 1.78.84.28 2 .55 2.85.77a60.56 60.56 0 0013.68 1.56 54.27 54.27 0 0026.68-6.61c1.23-.78 1.27-.79.05 0l5.69-3.27 2.84-1.68 2.85-1.68 2.84-1.68 2.85-1.68 2.84-1.67 2.85-1.68 2.84-1.68 2.85-1.68c1.43-.92 2.86-1.67 4.05-2.55a24.34 24.34 0 002.38-1.85 30.66 30.66 0 002.25-2.31c.8-1 1.79-2.33 2.48-3.36a21.31 21.31 0 001.51-2.83 28 28 0 001.14-3.18 11.9 11.9 0 00.42-1.88c0-.36.1-.78.14-1.2a13.9 13.9 0 00.21-2.4v-2.73c.07 6.14-3.95 12.28-12.06 16.96zm-28.62 20.56a3.68 3.68 0 00.07-.58 3.68 3.68 0 01-.07.58zm.09-.77v-.46.46z"/><path class="cls-13" d="M850.77 231.81a35.8 35.8 0 00-1.36-3.67 23 23 0 00-1.68-3 25.45 25.45 0 00-2.05-2.69c-.89-1-2.18-2.23-3.18-3.14a35.76 35.76 0 00-5.32-3.76l-.34-.14-15.91-9.24-16.11-9.36-16.11-9.37L772.6 178l-16.12-9.37-16.11-9.36-16.11-9.27-16.11-9.37-16.15-9.4-16.11-9.36a45.7 45.7 0 00-5-2.54c-1.47-.57-3.49-1.27-5-1.76-.86-.28-2-.55-2.87-.77a58.3 58.3 0 00-13.68-1.56 54.2 54.2 0 00-26 6.25 5.74 5.74 0 00-.84.36l-2.85 1.68-2.84 1.68-2.81 1.68-2.84 1.67-2.85 1.68-2.84 1.68-2.85 1.68-2.84 1.68-2.88 1.72-1.35.79a5.34 5.34 0 00-1.4.53c-1.26.77-2.92 1.86-4.11 2.74a26.66 26.66 0 00-2.32 1.93 23.27 23.27 0 00-2.25 2.31c-.57.74-1.8 2.34-2.5 3.36a19.77 19.77 0 00-1.51 2.84 32.46 32.46 0 00-1.13 3.18 13.27 13.27 0 00-.41 1.87c-.16 1.07-.27 2.51-.32 3.59a16.16 16.16 0 004.17 10.42c-.28-.13-.55-.27-.83-.39-1.5-.58-3.49-1.29-5-1.77-.84-.29-2-.56-2.85-.78a61.31 61.31 0 00-13.7-1.56 54.44 54.44 0 00-26.3 6.43 3.75 3.75 0 00-.41.19l-2.86 1.67L529 176l-2.86 1.68-2.83 1.68-2.91 1.64-2.83 1.67-2.85 1.68-2.84 1.68-2.88 1.71-1.29.76a5 5 0 00-1.55.57c-1.28.77-2.92 1.86-4.13 2.73a33.47 33.47 0 00-4.55 4.25c-.8 1-1.81 2.33-2.5 3.35a22.07 22.07 0 00-1.51 2.84 30.27 30.27 0 00-1.14 3.19q-.25.91-.42 1.86a54.85 54.85 0 00-.3 3.59c0 6.06 4 12.1 11.95 16.79l161.14 93.57c16 9.32 42 9.32 58.14 0l28.53-16.41v-.8.77c8-4.65 12.11-10.79 12.11-17a12.36 12.36 0 00-.1-1.92 23.75 23.75 0 00-.6-3.35 36.87 36.87 0 00-1.36-3.68 25 25 0 00-1.68-3 26.4 26.4 0 00-2-2.68l-.27-.29c16.05 6.85 38.79 6.06 53.39-2.38L839 254.19c8-4.72 12.4-11 12.38-17.13v-1.91a25.47 25.47 0 00-.61-3.34zM675 121.45a6.79 6.79 0 00-2.18-.33 6.79 6.79 0 012.18.33zm-44.9.69a12.28 12.28 0 00-4.46-1 11.92 11.92 0 014.48 1zM739 287l-28.53 16.43c-9.21 5.34-24.17 5.34-33.35 0L516 209.86c-9-5.27-9.06-13.8-.13-19.13l.28.14 28.44-16.43c-3-2-5.81-2.77-8-2.47 2.15-.33 5 .34 8 2.12 9.22-5.33 24.21-5.33 33.37 0a13.82 13.82 0 017.08-2.19l.06.05a14.16 14.16 0 00-7.23 2.19L739 267.79l.12-.07c9.14 5.33 9.08 13.99-.12 19.28zm59.44-34.33c-9.23 5.32-24.2 5.32-33.36 0L604 159.07c-9-5.26-9.08-13.77-.19-19.1l.23.12 28.6-16.78c9.23-5.32 24.18-5.32 33.32 0L827 217c3.62-2.09 6.87-2.66 9.16-1.89-2.28-.7-5.47-.13-9 1.92 9.12 5.3 8.81 14-.31 19.33z"/><path class="cls-9" d="M428.13 241.33c-9.23 5.32-9.28 14-.1 19.31l161.12 93.63c9.14 5.34 24.13 5.34 33.34 0L651 337.84c9.25-5.32 9.3-14 .12-19.31L490 224.9c-9.17-5.34-24.15-5.32-33.37 0z"/><path class="cls-10" d="M675.47 341.39v-2.74c0 6.14-4.05 12.28-12.16 17l-28.44 16.43c-16.11 9.29-42.14 9.29-58.15 0l-161.1-93.63c-7.94-4.67-11.93-10.71-11.95-16.77v2.62a12.23 12.23 0 00.1 1.91 22.34 22.34 0 00.62 3.36 36.8 36.8 0 001.35 3.68 31.87 31.87 0 001.67 3 25.52 25.52 0 002.05 2.67c.91 1 2.2 2.25 3.19 3.16a36.94 36.94 0 005.2 3.67c.07 0 .12.1.19.14l16.11 9.36 16.11 9.37 16.12 9.38 16.11 9.37 16.11 9.36 16.11 9.37 16.12 9.36 16.11 9.35 16.11 9.36 16.11 9.37a42.37 42.37 0 005 2.53c1.47.57 3.49 1.28 5 1.76.86.29 2 .56 2.87.78a60.49 60.49 0 0013.68 1.56 54.18 54.18 0 0026.66-6.62c.62-.38 5.73-3.27 5.73-3.27l2.85-1.68 2.84-1.67 2.85-1.68 2.84-1.68 2.85-1.68 2.84-1.68 2.85-1.68 2.77-1.64-.2.15c1.27-.79 3.18-1.76 4.39-2.63a28.54 28.54 0 002.3-1.95 25.92 25.92 0 002.25-2.32 38.86 38.86 0 002.5-3.35 19.84 19.84 0 001.51-2.84 29.94 29.94 0 001.14-3.17 12.42 12.42 0 00.42-1.88c.08-.61.15-1.34.21-2.06 0-.4.07-.8.08-1.2v-.33a.17.17 0 00.08.08z"/><path class="cls-13" d="M661.11 317.07zm14.37 21.58a11.13 11.13 0 00-.11-1.91 20.08 20.08 0 00-.62-3.36 32.5 32.5 0 00-1.36-3.68 26.2 26.2 0 00-1.67-3 28.46 28.46 0 00-2.05-2.69c-.91-1-2.2-2.23-3.19-3.14a35.3 35.3 0 00-5.34-3.74h-.09.06L645 307.7l-16.11-9.36-16.11-9.34-16.12-9.36-16.11-9.37-16.11-9.36-16.11-9.35-16.11-9.36-16.11-9.37-16.11-9.39a39.49 39.49 0 00-5-2.52c-1.49-.59-3.51-1.29-5-1.78-.84-.27-2-.55-2.86-.76a58.92 58.92 0 00-13.69-1.56 54.35 54.35 0 00-26.45 6.47c-.1 0-24.72 13.71-32.86 19.29a20.53 20.53 0 00-2.31 1.95 25.92 25.92 0 00-2.25 2.32 38.75 38.75 0 00-2.49 3.35 21.66 21.66 0 00-1.51 2.86 29.16 29.16 0 00-1.14 3.17 15 15 0 00-.42 1.88c-.13 1.06-.26 2.5-.3 3.57 0 6.06 4 12.1 11.95 16.79v-.05L576.73 372c16 9.29 41.95 9.29 58.15 0l28.53-16.43c8.05-4.68 12.08-10.73 12.07-16.92zM499.32 223.11a6.51 6.51 0 00-2.41-.42 6.55 6.55 0 012.41.42zM651 337.88l-28.46 16.39c-9.21 5.34-24.19 5.34-33.33 0L428 260.64c-9-5.27-9.06-13.8-.11-19.13 1.43-.91 28.92-16.75 28.92-16.75-3.1-2-.52-3.72-2.68-3.42 2.16-.33-.56 1.75 2.51 3.53 9.2-5.32 24.16-5.34 33.33 0L651 318.53h.19l-.16.08c9.22 5.27 9.17 13.95-.03 19.27z"/><path d="M741.92 177.44l1.24.71c4.58 2.64 4 7.26-1.28 10.31l-15.22 8.79L708.84 187l15.22-8.78c5.29-3.1 13.28-3.43 17.86-.78z" fill="none" stroke="#586a74" stroke-linejoin="round" stroke-width="3.21"/><path class="cls-13" d="M709.27 206l-15.55-9c-3.62-2.09-3.17-5.74 1-8.15l18-10.41a7.43 7.43 0 016.68-.28l22.47 13c1.71 1 1.49 2.71-.48 3.85l-18 10.42c-4.18 2.38-10.5 2.64-14.12.57z"/><path class="cls-9" d="M723.43 195.16c3.42-2 3-5.33-1.31-6.95a12.69 12.69 0 00-8.34 0c-3.14 1.18-4.22 3.29-3.24 5.11.13.25-.06.51-.43.65l-4.05 1.58c-.51.2-.58.62-.15.87l4.38 2.52a1.49 1.49 0 001.5-.08l2.76-2.37a1.46 1.46 0 011.14-.21 12.08 12.08 0 007.74-1.12z"/><path d="M643.59 227.59c4.42-.94 9.25-.54 12.42 1.29l1.24.72c4.58 2.64 4 7.26-1.28 10.31l-15.22 8.79-17.82-10.29 8.89-5.13" stroke-linecap="round" fill="none" stroke="#586a74" stroke-linejoin="round" stroke-width="3.21"/><path class="cls-13" d="M623.36 257.43l-15.55-9c-3.62-2.09-3.17-5.74 1-8.16l18-10.41a7.4 7.4 0 016.67-.27l22.47 13c1.71 1 1.5 2.71-.48 3.85l-18 10.41c-4.16 2.41-10.47 2.67-14.11.58z"/><path class="cls-9" d="M637.52 246.61c3.42-2 3-5.33-1.31-7a12.68 12.68 0 00-8.34 0c-3.14 1.19-4.22 3.3-3.24 5.12.13.24-.06.5-.42.64l-4.06 1.63c-.51.19-.58.61-.14.86l4.37 2.53a1.46 1.46 0 001.5-.09l2.76-2.36a1.46 1.46 0 011.14-.21 12.08 12.08 0 007.74-1.12z"/><path class="cls-13" d="M510.37 279.78a7.87 7.87 0 00-7.06 0c-2 1.13-2 3 0 4.08a7.87 7.87 0 007.06 0c1.96-1.13 1.96-2.95 0-4.08zm-10.94 6.31c-4.11-2.37-4.11-6.22 0-8.6a16.46 16.46 0 0114.91 0c4.11 2.38 4.11 6.23 0 8.6a16.46 16.46 0 01-14.91 0zm54.32 18.74a7.87 7.87 0 00-7.06 0c-2 1.13-2 2.95 0 4.08a7.78 7.78 0 007.06 0c1.96-1.13 1.91-2.97 0-4.08zm-10.93 6.31c-4.12-2.37-4.12-6.22 0-8.6a16.44 16.44 0 0114.9 0c4.12 2.38 4.12 6.23 0 8.6a16.44 16.44 0 01-14.9 0z"/><path class="cls-13" d="M542.77 304.83l-32.4-18.71a1.19 1.19 0 010-2.26 4.36 4.36 0 013.92 0l32.4 18.71a1.19 1.19 0 010 2.26 4.36 4.36 0 01-3.92 0zM562.14 316l-8.39-4.84a1.19 1.19 0 010-2.26 4.3 4.3 0 013.92 0l8.39 4.84a2.93 2.93 0 002.55 0l7.11-4.33a.27.27 0 000-.51l-1.67-1c-3.19-1.84-5.35-4.17-6.18-6.74l-3-9.28a9.61 9.61 0 00-4.66-5.07l-16-9.23a18.3 18.3 0 00-7.84-2.21l-10.59-.79a26.67 26.67 0 01-11.08-3.11l-2.26-1.3a15.89 15.89 0 00-9.9-1.53l.25.14a1.19 1.19 0 010 2.26 4.32 4.32 0 01-3.93 0l-1.17-.68-2.6 1.5c-.25.15-.25.37 0 .51l8.63 5a1.2 1.2 0 010 2.27 4.36 4.36 0 01-3.92 0l-8.73-5c-2.4-1.39-2.4-3.65 0-5l2.94-1.7c6.13-3.53 16.13-3.53 22.26 0l2.25 1.31a19 19 0 007.85 2.2l10.59.8a26.26 26.26 0 0111 3.14l16 9.23c3.19 1.84 5.34 4.16 6.18 6.73l3 9.26a9.57 9.57 0 004.65 5.06l1.72 1c2.35 1.36 2.35 3.57 0 5L572.4 316c-2.71 1.65-7.4 1.68-10.26 0z"/></svg>