<svg xmlns="http://www.w3.org/2000/svg" viewBox="0 0 1000 622.01"><defs><style>.cls-2{fill:#38454c}.cls-3{fill:#586a74}.cls-4{fill:#485960}.cls-6{fill:#3e86ff}</style></defs><path d="M982.67 252.08A188.12 188.12 0 00963.14 211l-.15-.28c-22.43-35.6-58.38-69-107.84-97.55-181-104.52-474.53-104.52-655.56 0C157 137.8 124.48 166 101.94 196c-44.9 56.49-53 139.81-31.26 206.43l.61-.05c16.25 51.74 59 101.26 128.31 141.26 181 104.52 474.53 104.52 655.56 0 45.9-26.5 80.16-57.18 102.78-89.91 34.78-46.28 60.74-110.43 24.73-201.65zm-699.6 191.44c-35.79-20.67-62.09-44.74-78.89-70.42a81.5 81.5 0 010-89.35c16.8-25.68 43.1-49.75 78.89-70.42 134.93-77.9 353.68-77.9 488.6 0 34.92 20.16 60.8 43.57 77.65 68.54a83.1 83.1 0 010 93.11c-16.85 25-42.73 48.37-77.65 68.54-134.93 77.89-353.67 77.9-488.6 0z" fill="#eceff1"/><path class="cls-2" d="M864.51 450.05l-164.8-122.84a66.07 66.07 0 00-8.88-6.1L463.18 189.67a89.48 89.48 0 00-14.66-6.67L241.89 90.59 157.7 139.2l112.14 83.59c12.05 9 15.76 20.73 10.4 31.66-12.55 25.55-12.24 52.84 1.06 78.34 7.55 14.51 2.19 30.24-13.88 42.22l-57.1 42.56 84.19 48.61 72.71-32.51c20.94-9.36 48.49-12.42 73.79-7.9a414.24 414.24 0 00141.15.37c16.16-2.8 33.65-1 47 4.93l151.17 67.59z"/><path class="cls-2" d="M847.21 427.56l-164.8-122.84a66.07 66.07 0 00-8.88-6.1L445.88 167.19a89.51 89.51 0 00-14.66-6.69L224.59 68.1l-84.19 48.61 112.15 83.59c12 9 15.75 20.73 10.39 31.66-12.55 25.59-12.19 52.84 1.07 78.34 7.54 14.51 2.18 30.24-13.89 42.22L193 395.09l84.2 48.6 72.7-32.51c20.94-9.36 48.49-12.42 73.79-7.9a414.3 414.3 0 00141.16.37c16.15-2.8 33.64-1 47 4.93L763 476.17z"/><path class="cls-2" d="M800.94 419.24l-142.75-137a66.07 66.07 0 00-8.88-6.1L421.66 144.7A89.13 89.13 0 00407 138L215.38 62.21l-99.2 32 112.15 83.59c12 9 15.75 20.73 10.39 31.66-12.55 25.59-12.19 52.84 1.07 78.34 7.54 14.51 2.18 30.24-13.89 42.22l-88.44 64.48 84.19 48.61 104-54.43c20.94-9.36 48.49-12.42 73.79-7.9a414.3 414.3 0 00141.16.37c16.15-2.8 33.64-1 47 4.93l151.2 67.6z"/><path class="cls-2" d="M255.33 285.38c-3.26-15.57-28.85-129.51 113.09-164.75S310.48 293 310.48 293s-54.19-10-55.15-7.62z"/><ellipse class="cls-2" cx="450.21" cy="296.12" rx="111.21" ry="64.2"/><ellipse class="cls-3" cx="450.21" cy="296.12" rx="76.91" ry="44.4"/><path class="cls-2" d="M923.17 217.24a188.12 188.12 0 00-19.53-41.05l-.15-.28c-22.44-35.6-58.38-69-107.84-97.55-181-104.52-474.53-104.52-655.56 0C97.53 103 65 131.12 42.43 161.17-2.47 217.63-10 300.58 11.71 367.21l.07.31c16.25 51.74 59 101.26 128.3 141.26 181 104.52 474.54 104.52 655.57 0 45.9-26.5 80.16-57.18 102.78-89.91 34.79-46.26 60.75-110.41 24.74-201.63zm-699.6 191.44c-35.8-20.67-62.09-44.74-78.9-70.42a81.54 81.54 0 010-89.35c16.81-25.68 43.1-49.75 78.9-70.42 134.92-77.9 353.67-77.9 488.59 0 34.93 20.16 60.84 43.57 77.65 68.51a83.06 83.06 0 010 93.11c-16.84 25-42.72 48.37-77.65 68.54-134.92 77.92-353.67 77.93-488.59.03z"/><path class="cls-4" d="M302.8 102.94l58.86 26.38 26.54-3.89c112.67-15.35 236.1 2.33 324 53.06 35 20.19 60.88 43.63 77.72 68.63a83.69 83.69 0 01-.59 93.79 185.07 185.07 0 01-21.93 26.26l.21.25a18.61 18.61 0 0023.37 3.83c118.2-68.74 1.6-370.2-487.29-275.69a3.9 3.9 0 00-.89 7.38z"/><path class="cls-2" d="M417.66 120.15s-99-9.18-117.31-17.38-38.63 9.65-38.63 9.65l33.8 99z"/><path class="cls-2" d="M726.25 299c18.86 30.69 41.66 69.3 41.66 69.3l-68.07 55.76-147.73-84.73-245.49-233.91 109.08 6a95.17 95.17 0 0142.42 12.64l218 126.07A142.65 142.65 0 01726.25 299z"/><path d="M359.64 331.85l-33.93-19.59c-79.21-45.73-69.28-125.61 22.19-178.42 30.51-17.62 76.66-19.53 103.08-4.27l225.1 130c26.42 15.25 23.11 41.9-7.4 59.51-91.46 52.77-229.83 58.51-309.04 12.77z" fill="#2979ff"/><ellipse class="cls-6" cx="463.54" cy="247.67" rx="111.54" ry="64.4"/><ellipse cx="463.54" cy="247.67" rx="70.66" ry="40.8" fill="#5494ff"/><path class="cls-6" d="M405.11 221.53l15.2 7.97 93.18 22.44 25.83-8.2-33.8-45.62-69.03-2.9-31.38 26.31z"/><ellipse cx="463.54" cy="247.67" rx="55.42" ry="31.99" fill="#f4f8ff"/><path class="cls-4" d="M171.14 369.89a185.45 185.45 0 01-26.47-31.63 81.64 81.64 0 010-89.34c16.8-25.68 36.71-43.07 71.51-66L199.29 170a25.91 25.91 0 00-34.95-.15c-38.42 34.74-111.9 117-25.92 200a23.46 23.46 0 0032.55.17z"/><path class="cls-3" d="M212 414.8l-19.06-11c-6.81-3.93-7.48-10.18-1.57-14.56l57.41-42.57c7.05-5.22 20.44-5.7 28.56-1l35.37 20.43c8.12 4.68 7.29 12.41-1.77 16.49l-73.75 33.11c-7.6 3.41-18.41 3.03-25.19-.9z"/><path class="cls-4" d="M664.49 430.9a9.76 9.76 0 001-17.63C652 406 634.19 396.51 624 392c-18-8.05-41.19-1-95.26.32s-93-9-120.7-11.27l-.82-.06a102.55 102.55 0 00-64.89 17.13l-36.42 24.59a11.55 11.55 0 002.76 20.5l21.29 7.19 37.3-16.68c20.94-9.36 48.49-12.42 73.79-7.9a414.24 414.24 0 00141.15.37c16.16-2.8 33.65-1 47 4.93l16.64 7.44z"/></svg>