<svg xmlns="http://www.w3.org/2000/svg" viewBox="0 0 1000 691.62"><defs><style>.cls-1{fill:#eceff1}</style></defs><path class="cls-1" d="M986.7 296.81L699.39 128.56a112.4 112.4 0 00-112.92 0L16 460.07a31.82 31.82 0 000 55.07l271.4 159a129.1 129.1 0 00129.41.19L986.7 343a26.73 26.73 0 000-46.19z"/><path d="M972.51 206.19v13l-273.12-160a112.37 112.37 0 00-112.92 0L0 375.1v43.59h.16a32.08 32.08 0 002.31 11.58 1.76 1.76 0 01.09.2 32.31 32.31 0 001.64 3.41c.1.19.24.36.35.55a30.68 30.68 0 001.85 2.84c.27.36.59.68.87 1 .59.72 1.16 1.45 1.82 2.12s1.12 1 1.68 1.51 1 .92 1.51 1.34a32.4 32.4 0 003.72 2.51l271.4 159a129.08 129.08 0 00129.41.18L986.7 273.65a26.48 26.48 0 0013.3-23.86v-43.6z" fill="#293033"/><path d="M209.83 258.35L0 375.1v43.59h.16a32.08 32.08 0 002.31 11.58 1.76 1.76 0 01.09.2 32.31 32.31 0 001.64 3.41c.1.19.24.36.35.55a30.68 30.68 0 001.85 2.84c.27.36.59.68.87 1 .59.72 1.16 1.45 1.82 2.12s1.12 1 1.68 1.51 1 .92 1.51 1.34a32.4 32.4 0 003.72 2.51l271.4 159a129 129 0 0070.8 17.29l-1-83.32z" fill="#485960"/><path d="M986.7 183.47L699.39 15.22a112.37 112.37 0 00-112.92 0L16 346.73a31.82 31.82 0 000 55.07l271.4 159a129.13 129.13 0 00129.41.18L986.7 229.69a26.73 26.73 0 000-46.22z" fill="#38454c"/><path class="cls-1" d="M4.55 390.47A31.54 31.54 0 0016 401.8l2.21 1.29L695 13.07l-3.5-2a113.64 113.64 0 00-17.18-6.55zm306.6 181.1l674.59-388.66-16.85-9.91-1-.32-677 390a128.88 128.88 0 0020.26 8.89z"/><path d="M986.7 183.47L832.17 93l-88.78 51.38-16-9.31 88.81-51.45-116.81-68.4a112.37 112.37 0 00-112.92 0L16 346.73a31.82 31.82 0 000 55.07l125.38 73.46 131.93-76.17 5.89 3.42 10.12 5.9-97.71 56.42-34.31 19.78 130.06 76.2a129.13 129.13 0 00129.41.18l569.93-331.3a26.73 26.73 0 000-46.22zM488.56 291.36l-98 56.55-56.17 32.43-16-9.31 154.14-89 5.88 3.43 10.14 5.89zm54.84-31.67l-16-9.31 154.15-89 16 9.31z" fill="none"/><path class="cls-1" d="M527.38 250.38l154.15-89-154.15 89zm-54.84 31.65l-.01.01 5.89 3.42-5.88-3.43zm16.02 9.33l-.01-.01-97.96 56.56 97.97-56.55zm-154.15 88.98h.01l-16.03-9.31 16.02 9.31zm192.97-129.96z"/><path class="cls-1" d="M478.42 285.46l-5.89-3.42v-.01l-154.14 89 16.03 9.31 56.17-32.43 97.96-56.56h.01l-10.14-5.89zm48.96-35.08l16.02 9.31 154.15-89-16.02-9.31-154.15 89zm216.01-106.03l88.78-51.38-15.97-9.35-88.84 51.41 16.03 9.32zM289.28 408.41l-10.12-5.9-5.89-3.42-131.93 76.17 15.96 9.35 34.27-19.78 97.71-56.42z"/></svg>