<svg xmlns="http://www.w3.org/2000/svg" viewBox="0 0 1000 631.95"><path d="M989.51 154.15l-167-96.38c-13.93-8-36.43-8-50.26 0L10.59 500.42c-13.83 8-13.76 21.07.16 29.11l167 96.39c13.93 8 36.43 8 50.26 0l761.66-442.66c13.83-8 13.76-21.07-.16-29.11" fill="#eceff1"/><path d="M999.77 116.73h-11L822.29 20.6c-13.92-8-36.42-8-50.25 0L10.33 463.25l-.25.16H0v14.24c0 5.32 3.45 10.66 10.48 14.72l167 96.39c13.93 8 36.43 8 50.26 0L989.4 146.09c6.64-3.85 10.07-8.86 10.31-13.92h.06z" fill="#dae1e6"/><path d="M988.79 116.73l-62.31-36L822.29 20.6c-13.92-8-36.42-8-50.26 0L213 345.47v248.41a45.13 45.13 0 0014.68-5.13l698.8-406.09 62.92-36.57c6.64-3.85 10.07-8.86 10.31-13.92h.06v-15.44z" fill="#cfd8dc"/><g style="isolation:isolate"><path d="M20.34 471c-8.39-4.84-8.44-12.7-.1-17.55l98-57a11 11 0 0110 0l185.84 107.28c2.77 1.59 2.78 4.18 0 5.78l-98 57c-8.34 4.85-21.91 4.85-30.3 0L20.34 471M683.55 73.75c-2.77-1.6-2.79-4.19 0-5.79l98-57c8.34-4.84 21.91-4.84 30.3 0l165.44 95.51c8.39 4.85 8.44 12.7.1 17.55l-98 57a11 11 0 01-10 0L683.55 73.75m305.73 28.67L822.33 6c-13.92-8-36.42-8-50.26 0L10.36 448.69c-13.83 8-13.76 21.07.17 29.11l167 96.39c13.92 8 36.42 8 50.25 0l761.66-442.66c13.84-8 13.77-21.07-.16-29.11" fill="#fafbfc"/><path d="M977.28 106.51L811.84 11c-8.39-4.85-22-4.85-30.3 0l-98 57c-2.75 1.6-2.73 4.19 0 5.79L869.37 181a11 11 0 0010 0l98-57c8.34-4.85 8.29-12.7-.1-17.55M86.54 488.63c-.26-.15-.33-.39-.1-.58l2.64-2.2a.31.31 0 00.1-.4l-1.35-2.56c-.19-.35.38-.68 1-.57l4.44.77a1.2 1.2 0 00.68-.06l3.78-1.53a1.28 1.28 0 011 .05.39.39 0 01.23.32l.11 2.68a.38.38 0 00.23.31h.08l3.7 1.62h.08c.41.23.27.64-.29.76l-4.37.88a.64.64 0 00-.48.28L96.5 491a1.09 1.09 0 01-1.3.17.18.18 0 01-.07-.05L92.32 489l-.07-.05a1.13 1.13 0 00-.54-.13l-4.63-.05a1.19 1.19 0 01-.54-.14m-12.32-12.35c-.25-.15-.33-.39-.09-.59l2.63-2.2a.31.31 0 00.11-.39l-1.36-2.57c-.19-.35.38-.67 1-.57l4.43.78a1.29 1.29 0 00.68-.06l3.8-1.53a1.19 1.19 0 011 .05.39.39 0 01.23.31l.11 2.68a.42.42 0 00.23.32h.08l3.71 1.62h.08c.4.23.26.64-.3.75l-4.37.88a.73.73 0 00-.48.28l-1.5 2.54a1.12 1.12 0 01-1.31.17l-.07-.05-2.83-2.06-.07-.05a1.11 1.11 0 00-.54-.13h-4.63a1.11 1.11 0 01-.54-.13m33.69 19.45c-.26-.15-.33-.39-.1-.59l2.63-2.2a.3.3 0 00.11-.39l-1.35-2.6c-.19-.35.37-.68 1-.57l4.44.78a1.2 1.2 0 00.68-.07l3.79-1.53a1.25 1.25 0 011 .06.42.42 0 01.23.31l.11 2.68a.42.42 0 00.23.32h.08l3.69 1.62h.09c.4.24.26.65-.3.76l-4.36.88a.72.72 0 00-.49.28l-1.5 2.53a1.1 1.1 0 01-1.31.18h-.07l-2.8-2.14h-.07a1.15 1.15 0 00-.55-.13l-4.62-.05a1.3 1.3 0 01-.54-.13m-33.78-33.33c-.26-.14-.33-.39-.1-.58l2.63-2.2a.3.3 0 00.11-.39l-1.36-2.57c-.18-.35.38-.68 1-.57l4.43.78a1.35 1.35 0 00.67-.06l3.79-1.54a1.28 1.28 0 011 .06.4.4 0 01.23.31l.1 2.68a.43.43 0 00.24.32h.07l3.7 1.61.09.05c.4.23.26.64-.3.75l-4.35.9a.72.72 0 00-.49.28l-1.5 2.53a1.1 1.1 0 01-1.31.18l-.07-.05-2.8-2.14-.08-.05a1.09 1.09 0 00-.53-.13l-4.63-.05a1.16 1.16 0 01-.54-.14m57.62 33.28c-.25-.15-.33-.4-.09-.59l2.63-2.2a.29.29 0 00.1-.39l-1.35-2.53c-.18-.35.38-.67 1-.57l4.43.78a1.27 1.27 0 00.68-.06l3.79-1.54a1.25 1.25 0 011 .06.36.36 0 01.23.31l.11 2.68a.42.42 0 00.23.32h.08l3.7 1.61.09.05c.4.23.26.64-.3.75l-4.37.88a.77.77 0 00-.49.28l-1.49 2.53a1.1 1.1 0 01-1.31.18h-.07l-2.8-2.14h-.08a1.13 1.13 0 00-.54-.13l-4.63-.05a1.34 1.34 0 01-.54-.13M86.32 450.1c-.25-.15-.33-.39-.1-.59l2.64-2.2a.3.3 0 00.11-.39l-1.36-2.56c-.19-.35.38-.68 1-.57l4.44.77a1.3 1.3 0 00.68-.06l3.76-1.5a1.21 1.21 0 011 0 .42.42 0 01.24.32l.1 2.68a.43.43 0 00.23.31h.08l3.7 1.62h.09c.4.23.26.64-.3.75l-4.37.88a.73.73 0 00-.48.28l-1.5 2.54a1.12 1.12 0 01-1.31.17h-.07l-2.8-2.13-.07-.05a1.18 1.18 0 00-.55-.13l-4.62-.06a1.12 1.12 0 01-.55-.13m68.22 32.33a1.19 1.19 0 01.79-.11l4.43.77a1.33 1.33 0 00.69-.06l3.78-1.53a1.25 1.25 0 011 .05.42.42 0 01.24.32l.09 2.68a.44.44 0 00.24.31h.08l3.7 1.62h.09a.34.34 0 010 .64 1.25 1.25 0 01-.31.12l-4.37.87a1.33 1.33 0 00-.3.11.59.59 0 00-.18.17L163 491a.59.59 0 01-.2.18 1.24 1.24 0 01-1.11 0l-.07-.05-2.8-2.13-.07-.05a1.21 1.21 0 00-.55-.13l-4.62-.06a1.12 1.12 0 01-.55-.13c-.26-.15-.33-.39-.09-.58l2.63-2.2a.31.31 0 00.11-.4l-1.37-2.56c-.09-.18 0-.35.2-.46m29 25.79l19.86-11.54 7.09 4.09-12 7 9.21 5.32 10.51-6.09 7 4.06-10.54 6.13 15.75 9.09-7.82 4.54-39.09-22.56M107.61 443c-.25-.15-.33-.39-.09-.59l2.63-2.2a.31.31 0 00.11-.39l-1.36-2.57c-.19-.35.37-.67 1-.57l4.43.78a1.28 1.28 0 00.68-.06l3.79-1.54a1.25 1.25 0 011 .06.37.37 0 01.23.31l.11 2.68a.42.42 0 00.23.32h.08l3.7 1.61.08.05c.41.23.26.64-.3.75l-4.36.88a.7.7 0 00-.48.28l-1.51 2.53a1.09 1.09 0 01-1.3.18l-.08-.05-2.8-2.14-.07-.05a1.11 1.11 0 00-.54-.13l-4.63-.05a1.08 1.08 0 01-.54-.13m57.63 33.27c-.26-.15-.33-.39-.09-.59l2.63-2.2a.3.3 0 00.1-.39l-1.36-2.57c-.18-.35.38-.67 1-.57l4.42.78a1.31 1.31 0 00.69-.06l3.79-1.53a1.22 1.22 0 011 .05.38.38 0 01.22.31l.11 2.68a.43.43 0 00.24.32h.08l3.7 1.62h.08c.41.23.26.64-.3.75l-4.37.88a.76.76 0 00-.48.28l-1.5 2.54a1.1 1.1 0 01-1.3.17l-.08-.05-2.8-2.13h-.07a1.06 1.06 0 00-.54-.14h-4.63a1.05 1.05 0 01-.54-.13M131.48 443c-.26-.15-.33-.39-.1-.59l2.63-2.2a.3.3 0 00.11-.39l-1.36-2.57c-.18-.35.38-.67 1-.57l4.43.78a1.26 1.26 0 00.67-.06l3.79-1.53a1.24 1.24 0 011 .05.39.39 0 01.23.31l.1 2.68a.41.41 0 00.23.31h.09l3.7 1.63h.09c.39.23.25.64-.3.75l-4.37.88a.69.69 0 00-.49.28l-1.5 2.54a1.12 1.12 0 01-1.3.17l-.07-.05-2.82-2.14-.07-.05a1.11 1.11 0 00-.54-.13l-4.63-.05a1 1 0 01-.53-.13m33.68 19.45c-.25-.15-.33-.4-.09-.59l2.63-2.2a.31.31 0 00.1-.39l-1.35-2.57c-.19-.35.37-.68 1-.57l4.43.78a1.4 1.4 0 00.68-.06l3.79-1.54a1.25 1.25 0 011 .06.37.37 0 01.23.31l.11 2.68a.39.39 0 00.23.31h.08l3.69 1.62.1.05c.4.23.25.63-.3.75l-4.37.88a.72.72 0 00-.49.28l-1.5 2.53a1.1 1.1 0 01-1.3.18l-.07-.06-2.81-2.13-.07-.05a1.16 1.16 0 00-.54-.13l-4.63-.05a1.19 1.19 0 01-.54-.13m-12.32-12.23c-.25-.15-.33-.39-.09-.59l2.63-2.2a.29.29 0 00.1-.39l-1.35-2.56c-.18-.35.38-.68 1-.58l4.43.78a1.23 1.23 0 00.69-.06L164 443a1.24 1.24 0 011 0 .43.43 0 01.23.32l.1 2.68a.42.42 0 00.23.31h.09l3.7 1.62h.08c.4.23.26.64-.3.75l-4.36.88a.72.72 0 00-.49.29l-1.5 2.53a1.09 1.09 0 01-1.3.17h-.08l-2.8-2.14h-.07a1.07 1.07 0 00-.55-.13l-4.62-.06a1.12 1.12 0 01-.55-.13m161.24 53.63L128.26 396.44a11 11 0 00-10 0l-98 57c-8.34 4.85-8.29 12.71.1 17.55l165.44 95.52c8.39 4.85 22 4.85 30.3 0l98-57c2.75-1.6 2.74-4.19 0-5.78" fill="#2979ff"/><path fill="#fff" d="M210.46 500.77l-7.09-4.09-19.86 11.54 39.09 22.56 7.82-4.54-15.75-9.09 10.54-6.13-7.03-4.06-10.54 6.13-9.21-5.32 12.03-7"/><path d="M144 488.65a1.25 1.25 0 00-1-.06l-3.79 1.54a1.27 1.27 0 01-.68.06l-4.43-.78c-.6-.1-1.16.22-1 .57l1.35 2.57a.29.29 0 01-.1.39l-2.63 2.2c-.24.19-.16.44.09.59a1.34 1.34 0 00.54.13l4.63.05a1.13 1.13 0 01.54.13h.08l2.8 2.14h.07a1.1 1.1 0 001.31-.18l1.49-2.53a.77.77 0 01.49-.28l4.37-.88c.56-.11.7-.52.3-.75l-.09-.05-3.74-1.51h-.08a.42.42 0 01-.23-.32l-.11-2.68a.36.36 0 00-.23-.31m-23.86-.04a1.25 1.25 0 00-1-.06l-3.79 1.53a1.2 1.2 0 01-.68.07l-4.44-.78c-.6-.11-1.16.22-1 .57l1.35 2.57a.3.3 0 01-.11.39l-2.63 2.2c-.23.2-.16.44.1.59a1.3 1.3 0 00.54.13l4.62.05a1.15 1.15 0 01.55.13h.07l2.8 2.14h.07a1.1 1.1 0 001.31-.18l1.5-2.53a.72.72 0 01.49-.28l4.36-.88c.56-.11.7-.52.3-.76h-.09l-3.67-1.55h-.08a.42.42 0 01-.23-.32l-.11-2.68a.42.42 0 00-.23-.31m-21.37-7.14a1.28 1.28 0 00-1-.05l-3.8 1.5a1.2 1.2 0 01-.68.06l-4.44-.77c-.59-.11-1.16.22-1 .57l1.35 2.56a.31.31 0 01-.1.4l-2.64 2.2c-.23.19-.16.43.1.58a1.19 1.19 0 00.54.14l4.63.05a1.13 1.13 0 01.54.13l.07.05 2.81 2.13a.18.18 0 00.07.05 1.09 1.09 0 001.3-.17l1.53-2.5a.64.64 0 01.48-.28l4.37-.88c.56-.12.7-.53.29-.76h-.08l-3.7-1.62h-.08a.38.38 0 01-.23-.31l-.05-2.76a.39.39 0 00-.23-.32M86.4 469.2a1.19 1.19 0 00-1-.05l-3.8 1.53a1.29 1.29 0 01-.68.06l-4.43-.74c-.6-.1-1.17.22-1 .57l1.36 2.57a.31.31 0 01-.11.39l-2.63 2.2c-.24.2-.16.44.09.59a1.11 1.11 0 00.54.13h4.63a1.11 1.11 0 01.54.13l.07.05 2.81 2.14.07.05a1.12 1.12 0 001.31-.17l1.5-2.54a.73.73 0 01.48-.28l4.37-.88c.56-.11.7-.52.3-.75h-.08l-3.71-1.62h-.08a.42.42 0 01-.23-.32l-.11-2.68a.39.39 0 00-.23-.31m-.05-13.89a1.28 1.28 0 00-1-.06l-3.79 1.54a1.35 1.35 0 01-.67.06l-4.43-.78c-.61-.11-1.17.22-1 .57l1.36 2.57a.3.3 0 01-.11.39l-2.63 2.2c-.23.19-.16.44.1.58a1.16 1.16 0 00.54.14l4.63.05a1.09 1.09 0 01.53.13l.08.05 2.8 2.14.07.05a1.1 1.1 0 001.31-.18l1.5-2.53a.72.72 0 01.49-.28l4.36-.88c.56-.11.7-.52.3-.75l-.09-.05-3.68-1.61h-.07a.43.43 0 01-.24-.32l-.1-2.68a.4.4 0 00-.23-.31M98.5 443a1.21 1.21 0 00-1 0l-3.78 1.53a1.3 1.3 0 01-.68.06l-4.44-.77c-.6-.11-1.17.22-1 .57l1.4 2.53a.3.3 0 01-.11.39l-2.64 2.2c-.23.2-.15.44.1.59a1.12 1.12 0 00.55.13l4.62.06a1.18 1.18 0 01.55.13l.07.05 2.8 2.13h.07a1.12 1.12 0 001.31-.17l1.5-2.54a.73.73 0 01.48-.28l4.37-.88c.56-.11.7-.52.3-.75h-.09l-3.7-1.62h-.08a.43.43 0 01-.23-.31l-.1-2.68a.42.42 0 00-.24-.32m21.26-7.12a1.25 1.25 0 00-1-.06l-3.79 1.54a1.28 1.28 0 01-.68.06l-4.43-.78c-.61-.1-1.17.22-1 .57l1.36 2.57a.31.31 0 01-.11.39l-2.63 2.2c-.24.2-.16.44.09.59a1.08 1.08 0 00.54.13l4.63.05a1.11 1.11 0 01.54.13l.07.05 2.8 2.14.08.05a1.09 1.09 0 001.3-.18l1.51-2.53a.7.7 0 01.48-.28l4.36-.88c.56-.11.71-.52.3-.75l-.08-.05-3.7-1.61h-.08a.42.42 0 01-.23-.32l-.11-2.68a.37.37 0 00-.23-.31m23.88-.04a1.24 1.24 0 00-1-.05l-3.79 1.53a1.26 1.26 0 01-.67.06l-4.43-.78c-.61-.1-1.17.22-1 .57l1.36 2.57a.3.3 0 01-.11.39l-2.63 2.2c-.23.2-.16.44.1.59a1 1 0 00.53.13l4.63.05a1.11 1.11 0 01.54.13l.07.05 2.82 2.14.07.05a1.12 1.12 0 001.3-.17l1.5-2.54a.69.69 0 01.49-.28l4.37-.88c.55-.11.69-.52.3-.75h-.09l-3.7-1.63h-.09a.41.41 0 01-.23-.31l-.1-2.68a.39.39 0 00-.23-.31M165 443a1.24 1.24 0 00-1 0l-3.78 1.53a1.23 1.23 0 01-.69.06l-4.43-.78c-.6-.1-1.16.23-1 .58l1.35 2.56a.29.29 0 01-.1.39l-2.63 2.2c-.24.2-.16.44.09.59a1.12 1.12 0 00.55.13l4.62.06a1.07 1.07 0 01.55.13h.07l2.8 2.14h.08a1.09 1.09 0 001.3-.17l1.5-2.53a.72.72 0 01.49-.29l4.36-.88c.56-.11.7-.52.3-.75h-.08l-3.7-1.62h-.09a.42.42 0 01-.23-.31l-.1-2.68a.43.43 0 00-.23-.36m12.34 12.38a1.25 1.25 0 00-1-.06l-3.79 1.54a1.4 1.4 0 01-.68.06l-4.43-.78c-.61-.11-1.17.22-1 .57l1.35 2.57a.31.31 0 01-.1.39l-2.63 2.2c-.24.19-.16.44.09.59a1.19 1.19 0 00.54.13l4.63.05a1.16 1.16 0 01.54.13l.07.05 2.81 2.13.07.06a1.1 1.1 0 001.3-.18l1.5-2.53a.72.72 0 01.49-.28l4.37-.88c.55-.12.7-.52.3-.75l-.1-.05-3.67-1.62h-.08a.39.39 0 01-.23-.31l-.11-2.68a.37.37 0 00-.23-.31m.07 13.78a1.22 1.22 0 00-1-.05l-3.79 1.53a1.31 1.31 0 01-.69.06l-4.42-.78c-.61-.1-1.17.22-1 .57l1.36 2.57a.3.3 0 01-.1.39l-2.63 2.2c-.24.2-.17.44.09.59a1.05 1.05 0 00.54.13h4.63a1.06 1.06 0 01.54.14h.07l2.8 2.13.08.05a1.1 1.1 0 001.3-.17l1.5-2.54a.76.76 0 01.48-.28l4.37-.88c.56-.11.71-.52.3-.75h-.08l-3.7-1.62h-.08a.43.43 0 01-.24-.32l-.11-2.68a.38.38 0 00-.22-.31m-12.18 12.37a1.25 1.25 0 00-1-.05l-3.79 1.5a1.33 1.33 0 01-.69.06l-4.43-.77a1.19 1.19 0 00-.79.11c-.19.11-.29.28-.2.46l1.37 2.56a.31.31 0 01-.11.4l-2.63 2.2c-.24.19-.17.43.09.58a1.12 1.12 0 00.55.13l4.62.06a1.21 1.21 0 01.55.13l.07.05 2.8 2.13.07.05a1.24 1.24 0 001.11 0 .59.59 0 00.2-.18l1.5-2.54a.59.59 0 01.18-.17 1.33 1.33 0 01.3-.11l4.37-.87a1.25 1.25 0 00.31-.12.34.34 0 000-.64h-.09l-3.7-1.62h-.08a.44.44 0 01-.24-.31l-.09-2.68a.42.42 0 00-.24-.32" fill="#ffb319"/><path d="M276 426.38l-15.83-17.75 30.83 9.06-15 8.69m64.38-5.66L253 396.63l-13.58 7.89 41.87 50.53 13-7.57-11-12.84L305.15 422l22.21 6.34 13-7.57m.77-32.24l-15.84-17.75 30.79 9.06-14.95 8.69m64.38-5.65l-87.37-24.09-13.57 7.89 41.87 50.53 13-7.57-11-12.85 21.83-12.68 22.21 6.34 13-7.57m9.88-31.61l-11.45-6.61-25.49 14.82 11.44 6.61 25.5-14.82m16.17-20.95c-13.66-7.88-20.13-13-12.34-17.53s16.75-.85 30.41 7 20.13 13 12.24 17.59-16.55.86-30.31-7.09m31.19-18.12c-22-12.68-39.57-15.83-55.71-6.45s-10.57 19.51 11.4 32.2S458 353.78 474 344.45s10.75-19.51-11.31-32.25M489 297c-13.66-7.89-20.13-13-12.34-17.53s16.74-.86 30.4 7 20.14 13 12.25 17.59-16.61.84-30.31-7.06m31.18-18.12c-22-12.69-39.56-15.83-55.71-6.45s-10.56 19.5 11.41 32.19 39.57 15.83 55.61 6.51 10.76-19.51-11.31-32.25m26.19-15.29c-13.66-7.89-20.14-13-12.34-17.53s16.74-.86 30.4 7 20.13 13 12.25 17.59-16.56.85-30.31-7.09m31.17-18.12c-22-12.68-39.56-15.83-55.7-6.45s-10.56 19.51 11.41 32.19 39.56 15.83 55.61 6.51 10.75-19.51-11.32-32.25m48.5-16.6l-11.44-6.61-25.5 14.82 11.44 6.61 25.5-14.82m23.81-19.72L634 191.37l30.78 9.06-14.95 8.69m64.38-5.65l-87.36-24.09-13.58 7.89 41.87 50.52 13-7.57-11-12.84L679 204.69l22.21 6.31 13-7.56m.79-32.17l-15.83-17.74 30.78 9.06-14.95 8.68m64.38-5.65L692 141.53l-13.58 7.89L720.28 200l13-7.57-11-12.85 21.83-12.68 22.21 6.34 13-7.57" fill="#293033"/></g></svg>