<svg xmlns="http://www.w3.org/2000/svg" viewBox="0 0 1000 722.07"><defs><style>.cls-1{fill:#586a74}.cls-3{fill:#485960}.cls-4{fill:#38454c}.cls-6{fill:#651dff}.cls-7{fill:#91a4ae}.cls-8{fill:#7b8e98}.cls-10{fill:#dae1e6}.cls-11{fill:#844bff}</style></defs><path class="cls-1" d="M133.06 477.07l-108 62.33c-13.85 8-25.09-.49-25.09-19H0c0-18.4 11.24-39.92 25.09-47.92l108-62.33z"/><path d="M971 299.31L243.83 717.25c-12.37 7.14-34 6.24-48.26-2L13.5 605.4c-14.28-8.25-15.83-20.72-3.5-27.87l727.17-417.94c12.37-7.14 34-6.24 48.26 2L967.5 271.44c14.28 8.25 15.83 20.73 3.5 27.87z" fill="#eceff1"/><path class="cls-3" d="M980.71 198.44h-19.42v4.29l-148.2-85.54c-14.29-8.25-35.91-9.14-48.28-2L46.05 528.12v-7.18h-17v24.27h.12c0 5.49 4 11.29 11.81 15.82l154.73 85.65c14.3 8.26 37.32 11.47 49.71 5.81l727-415.62c5.51-4.67 8.25-8.91 8.35-13.36v-.8z"/><path class="cls-1" d="M46.05 520.94h-17v23h.12c0 5.41 4 11.11 11.82 15.57l156.26 88.66c7.77 4.41 17.7 6.67 27.14 6.7V428.73h-7.11L46.05 527.27z"/><path class="cls-4" d="M972.29 210.4L245.16 628.33c-12.37 7.15-34 6.25-48.27-2L41 536.32c-14.28-8.24-15.83-20.72-3.46-27.86L764.66 90.52c12.37-7.14 34-6.25 48.26 2l155.9 90c14.28 8.26 15.84 20.73 3.47 27.88z"/><path class="cls-3" d="M980.71 154.76h-19.42v4.29l-148.2-85.54c-14.29-8.24-35.91-9.14-48.28-2L46.05 484.45v-6h-17v23h.12c0 5.49 4 11.29 11.81 15.82l156.12 90.21c14.3 8.26 35.94 9.16 48.33 2L973.67 190.9c5.51-3.18 8.25-7.42 8.34-11.87h-1.3z"/><path class="cls-1" d="M46.05 478.48h-17v23h.12c0 5.4 4 11.11 11.82 15.56l156.26 88.67c7.77 4.41 17.7 6.67 27.14 6.7V386.27h-7.11L46.05 484.81z"/><path class="cls-1" d="M249.77 649.83c-4.88 4-22.74 10-46.05 3.38S8.09 540.55 8.09 540.55l11.37-58.27 14.16-13.6 217.83 116.55z"/><path class="cls-3" d="M255.17 646.86l-5.4 3c-16.1 7.54-31-1.11-31-21.48v-2c0-21.49 11.17-32.39 25-40.39l11.34-6.42z"/><path class="cls-4" d="M234.93 621.51c0 3.44 2.8 10.42 12.84 5.39l11.31-6.46v-18.67l-17.8 10.14c-3.93 2.25-6.35 6.16-6.35 9.6zm737.36-454.17L245.16 585.28c-12.37 7.14-34 6.24-48.27-2L41 493.27c-14.29-8.27-15.84-20.73-3.47-27.87L764.66 47.46c12.37-7.14 34-6.24 48.26 2l155.9 90c14.28 8.26 15.84 20.74 3.47 27.88z"/><path class="cls-3" d="M980.71 112.3h-19.42v4.28l-148.2-85.53c-14.29-8.25-35.91-9.15-48.28-2L460.35 204.61l230.14 107.18 283.18-163.35c5.51-3.18 8.25-7.42 8.34-11.87h-1.3z"/><path class="cls-4" d="M972.29 124.7L579.5 351.38c-12.37 7.14-34 6.24-48.27-2l-155.9-90c-14.28-8.25-15.83-20.73-3.46-27.87L764.66 4.82c12.37-7.14 34-6.24 48.26 2l155.9 90c14.28 8.26 15.84 20.73 3.47 27.88z"/><path d="M345.08 469.47l78.83 13.01 155.25-88.6-100.35-24.55-133.73 100.14zm-15.6-161.73l-90.05 53.67 62.88 43.25 41.94-28.37a19.17 19.17 0 0121.27-.14L398.81 398l41.12-33.17z" fill="#293033"/><path class="cls-4" d="M970.78 98.2c15.82 9.85 23.87 19.43 27.48 31.91s-23 26.37-23 26.37L907 140.66z"/><path class="cls-3" d="M975.2 189.26l-73.36 42.36v-66.14l73.36-42.35c13.7-7.91 24.8.49 24.8 18.75s-1.62 34.37-24.8 47.38z"/><path class="cls-4" d="M981 154a15.06 15.06 0 01-7.66 13l-87.47 50.07.16-18 85.82-50.46A6.08 6.08 0 01981 154z"/><path class="cls-6" d="M674.34 375.2L608 413.52c-9.29 5.36-24.49 5.36-33.78 0L339.1 277.79c-9.29-5.36-9.29-14.14 0-19.5l91.9-53.07c27.5-15.87 72.48-15.87 100 0L674.34 288c41.54 24 41.54 63.22 0 87.2z"/><path class="cls-6" d="M332.12 208.34v103.17l163.07 56.57 82 32.81a36.77 36.77 0 0033.84-3.41l94.08-61.79V273l-180-110.88a112.53 112.53 0 00-101 0z"/><path class="cls-7" d="M208.37 367.24h14.56v21.84h-14.56z"/><path class="cls-7" d="M563.83 374.76l-19.38-1.46v3.22L339.1 257.75l-13.1 7.59c-3.54 2-5.64 4.78-5.88 7.67l-3.65 43.22c-.24 2.89-2.34 5.62-5.88 7.67l-95.09 55c-9.36 5.41-9.36 14.27 0 19.69l115.68 66.91c9.4 5.43 24.77 5.43 34.16 0l94.94-54.91a28.79 28.79 0 0113.5-3.41l75.44-1.63a28.76 28.76 0 0013.5-3.41l1.41-9.8zm-145.47 13l-70.93 40.94a14 14 0 01-12.72 0L279 396.55c-3.51-2-3.51-5.32 0-7.35l71-40.94a14 14 0 0112.72 0l55.69 32.15c3.46 2.03 3.46 5.31-.05 7.34z"/><path class="cls-8" d="M561.4 373.3h-16.95v3.22L518 361.24h-52v47a32.78 32.78 0 017.74-1.09l75.44-1.63a30 30 0 0012.18-2.71z"/><path class="cls-8" d="M555.36 373.29v31.48a25.35 25.35 0 007.69-2.77l5.32-3a6.87 6.87 0 003.48-6v-19.94z"/><path d="M352.75 346.81a14 14 0 019.65 1.19l55.6 32.33c3.47 2 3.47 5.32 0 7.33l-4.52 2.63h9.6v-83.72h-70.33z" fill="#b0bec5"/><path class="cls-10" d="M343.44 238.26a8.51 8.51 0 00-8.51 0l-8.87 5.12c-3.55 2.05-5.65 4.78-5.89 7.68l-3.65 43.21c-.25 2.89-2.35 5.63-5.9 7.68l-95.25 55c-9.38 5.42-9.38 14.28 0 19.7l115.93 66.92c9.39 5.42 24.74 5.42 34.12 0l95.16-54.94a28.84 28.84 0 0113.52-3.4l75.58-1.64a28.84 28.84 0 0013.52-3.4l6.54-3.78a4.33 4.33 0 000-7.5zm4 168.56a14 14 0 01-12.72 0L279 374.67c-3.51-2-4-6.07-.5-8.1l70.93-40.95a13.62 13.62 0 0114.55-.91l53.61 31c3.51 2 3.51 5.09 0 7.12z"/><path class="cls-10" d="M343.44 238.26a8.71 8.71 0 00-8.51 0l-8.6 5c-3.44 2-5.48 4.64-5.71 7.45l-4.28 43.84c-.24 2.8-2.28 5.45-5.72 7.44l-87.77 50.78c-9.1 5.25-9.1 13.84 0 19.09l112.38 64.89c9.1 5.25 21.61 3.51 30.71-1.74l90.23-51.87c3.49-2 11.25-3.37 16.18-3.47l70.3-.85a28 28 0 0013.11-3.31l6.34-3.66a4.2 4.2 0 000-7.27zm5.41 164.22a13.6 13.6 0 01-12.33 0l-54-31.17c-3.4-2-3.4-5.15 0-7.12l68.76-39.69a13.6 13.6 0 0112.33 0l54 31.17c3.4 2 3.4 5.15 0 7.12z"/><path class="cls-11" d="M674.34 314.39L608 352.71c-9.29 5.36-24.49 5.36-33.78 0L339.1 217c-9.29-5.36-9.29-14.14 0-19.5l91.9-53.08c27.5-15.88 72.48-15.88 100 0l143.37 82.77c41.51 23.98 41.51 63.22-.03 87.2z"/><path class="cls-4" d="M620.89 293.9a2.15 2.15 0 00.75-3 17.88 17.88 0 00-5.3-5.67l-.31-.19-172.5-100.8a12.08 12.08 0 00-4.84-1.4c-4.29-1-9.49 0-15.11 3.27-9.27 5.36-17.44 15.56-22.2 26.62-.91 2.45-.82 4.47 1.84 6L570 315.05a11.73 11.73 0 004.32 1.35 14.57 14.57 0 007.17-.56 15.17 15.17 0 003-1.17c2.79-1.47 28.75-16.32 36.4-20.77z"/><path class="cls-1" d="M612 284.1a12.6 12.6 0 014.33 1.15l-.31-.19-172.49-100.82a12.08 12.08 0 00-4.84-1.4c-4.29-1-9.49 0-15.11 3.27h-.06a4.77 4.77 0 00.08 8.24l164.52 95a5.57 5.57 0 006-.2q1.39-1 2.82-1.8c5.59-3.22 10.79-4.2 15.06-3.25z"/><path d="M611.93 264.71l-134.84-77.84c-6.2-3.59-5.42-9.84 1.74-14l12.1-7c7.17-4.13 18-4.58 24.21-1L650 242.75c6.2 3.58 5.42 9.84-1.74 14l-12.1 7c-7.16 4.1-18.03 4.55-24.23.96z" fill="#a378ff"/><ellipse class="cls-11" cx="601.68" cy="306.56" rx="11.16" ry="6.45" transform="rotate(-60 601.68 306.561)"/></svg>