<svg xmlns="http://www.w3.org/2000/svg" viewBox="0 0 859.03 1000"><defs><style>.cls-2{fill:#2979ff}.cls-3{fill:#3e86ff}.cls-6{fill:#64dd17}.cls-7{fill:#73e02e}.cls-8{fill:#83e445}</style></defs><ellipse cx="423.43" cy="810.78" rx="327.74" ry="189.22" fill="#eceff1"/><circle class="cls-2" cx="429.52" cy="429.52" r="429.52" transform="rotate(-45 429.522 429.516)"/><path class="cls-3" d="M429.51 0C192.3 0 0 192.3 0 429.51a427.49 427.49 0 0064.42 226.31 427.81 427.81 0 00279.64 103.52c237.22 0 429.52-192.3 429.52-429.52a427.49 427.49 0 00-64.42-226.3A427.79 427.79 0 00429.51 0z"/><ellipse cx="421.01" cy="202.63" rx="118.51" ry="68.42" fill="#5494ff"/><path class="cls-3" d="M740 163.09c26.29 79.88.52 307.66-92 365.9-96.58 60.81-246.81 10.74-374.39-122.8-122-127.76-251.73-77.64-262.73-73.06a430.58 430.58 0 0053.54 322.69 427.81 427.81 0 00279.64 103.52c237.22 0 429.52-192.3 429.52-429.52A427.9 427.9 0 00740 163.09z"/><path class="cls-2" d="M25 574.11a428.27 428.27 0 0039.44 81.71 430 430 0 00414.92 81.76c-38.09-2.65-151.25-27.35-233.16-99.29C187.47 586.73 96 566.32 25 574.11z"/><path d="M533.68 80.22c-18.36-7-44.35-9.9-31.56 7.24s23.24 22.45 18 36-19.69 24.1-19.19 35.36 3.18 25.24 11.4 24.79 35.7-14 46.16-8.72 46.68 21.73 56.87 11.81 15.29-6.91 29.5-16.78 20.9-28 10.16-32.35-14-.37-31.53-8.9-21.08-23.79-39.91-27.68-36.42-15.65-49.9-20.77z" fill="#e9f1ff"/><path class="cls-2" d="M472 52.29s-82 11.85-99.92-1.84c-8.88-6.85-19.21-15.61-31-23.06C241.88 52.54 136 99.82 76.46 185.54c-3.63 6.14-10.61 33.21 3.35 65.58 10.38 24.09 35 24.83 39.34 46.33 9.21 45.77 13.12 50.51 21.86 64 9 13.9 21.07-21.56 29.8-10.77s-11.28 16.63-20.85 27.8-13.73 17.86-15 47.75 16.9 61.89 20.77 75.23-14.26 19.75-19.37 42.37-45.89 82.85-33.66 121.62c11.66 37 34 38 40.91 15.94s8.1-45.07 26.92-56.18 42.24 3.21 62.52-22.77 25.2-22.37 42.8-26.9 14.94-15.54 36.66-33.19 19-28.72 16.41-42.48c-2.54-13.42-9.67-21.59-19.35-30.89-4.52-4.34-30.51-14.53-32.37-24.56-5.58-30.14-17.87-65.23-36.09-87.07s-63.29-29.3-76.28-39.44-19.8-34.19-14.51-44.65 9.31-28.48-1.91-31.88c-11.8-3.58-7.66-14.34 2-26.54 7.29-9.21 39.54-12.41 49.4 4.19 3.36 5.66 3.07 2.25-2.61 26.7s-7.07 63.14 24.37 61.21c10.61-.65 19.26-13.22 12.28-29.59s-2-27 22.89-47.44c22.65-18.59 39.86-12.49 64.71-30.91 21.8-16.16 10.45-11.69 16.4-6.11 2.47 2.31 17.46 10.51 21.58 11.35 15.77 3.21 8.3-5.71 25.26-8.79 12.28-2.23 22.32 10.32 41.72-6.28 11.21-9.6-15.36-47.12-3.07-58.61 13-12.13-11.08-8.22-10.33-36.27s19.05-9.29 25.68-19.35C447.84 61.09 472 52.29 472 52.29zm-82.7 75.23c-14.2 9.72-30.88 11.51-40.22 9s-41.6-28.84-38.43-38.94 11.5-34.77 28.35-30.46c6.33 1.6 46.71 16.24 55.44 15.63 9.52-.67 14.13 28.48 7.07 34.91a118.86 118.86 0 01-12.17 9.86z"/><path class="cls-6" d="M448.29 47.87C423.18 50.65 373 49.9 355 36.21c-8.88-6.85-19.21-15.61-31-23.07A430.56 430.56 0 0076.59 184.33a142 142 0 006.84 35.1c8.37 24.86 23.75 33.75 42.2 45.61s7.7 20.59 12.82 36.32 6.54 24.28 15.27 35.08-11.28 16.63-20.85 27.8-13.73 17.86-15 47.75 16.9 61.89 20.77 75.22-14.26 19.79-19.37 42.38-28.76 78.63-21.07 118.54 21.39 41.07 28.32 19 8.1-45.07 26.92-56.18 42.24 3.22 62.52-22.76 25.2-22.37 42.8-26.9 14.94-15.54 36.66-33.19 34-37.54 19.07-54.35-27.74-20.83-35-49.33-23.49-59.92-41.76-81.76-61.11-21.26-74.1-31.4-11.09-41.83-5.81-52.28-4.53-17.6-16.14-19.19-14.81-10.71-12.06-26 31.88-24.34 50.29-18.55 24.68 17.87 19 42.31-3.57 47.64 19.79 52.69a10.61 10.61 0 006.8-.78 12.8 12.8 0 007.16-12.74 90.57 90.57 0 00-2.44-15.53c-3.48-12.47-7.11-20.32 12-42.61s36.48-16.54 62.14-33.8 21.6 1.82 37 10.71 16.45-.89 28.41-13.31 27.57 8.66 49.45 3.42-6.15-38.28 2.69-53.67 24.84-8.31 25.6-36.37 13.6-24 23.71-30.53 2.17-19.93-22.93-17.16zm-76 65.41c-14.2 9.72-30.88 11.51-40.22 9S314.37 98.13 317.54 88s18.48-7.34 35.3-3c6.33 1.6 15.3 1.61 24 1a10 10 0 017.51 17.41 118.86 118.86 0 01-12.1 9.87z"/><path class="cls-7" d="M134.8 417.27c-6.31-11.29-11.33-23.87-12.38-36.61-2.49 6.85-3.9 16.07-4.55 31.33-1.33 29.87 16.9 61.89 20.77 75.22s-14.26 19.79-19.37 42.38-28.76 78.63-21.07 118.54c4 20.92 9.69 31.18 15.19 33-1.84-46.61 6.51-94.93 34.24-132.16 8-10.67 17.54-20.55 22-33.09 6.07-17 1.55-36.2-6.52-52.39s-19.47-30.44-28.31-46.22z"/><path class="cls-2" d="M819.22 567l-.36 1.16a30.37 30.37 0 00-22.08 9.36c-18 18.59-15.73 8.2-43 14.76s-24 21.73-28.87 37.34-36.46 22.9-50.8 23.42-33.53 32.9-36.27 51.24-25.56 17.17-44 27.56-35.71 33.16-48.68 42.26-30.58 10.56-44.11 2.32-22.71-33-22.18-57 3.07-50.47 16.75-71.44 16.88-21 25.67-58.61-11.65-51.93-24-60.83-31.38-9.74-40.74-21.77-11.59-26.43-6.14-63.07 24.34-44.43 45.77-55.14c25.67-12.84 69.5-27.84 94.88-25s18.94 20.93 30.12 33.53 11.51 30.88 21.06 35.94 20.17 3.31 29.39 9.23 14 13.47 24.33 15.7 8.67-11.39 9.76-18.13-8.36-8.69-20-13.44-13.3-9.14-14.34-18.56-10.45-5.28-14.81-10.71-4.93.92-7.63 6.25-7.15 2.25-7.15 2.25-7.82 5.6-8.53 1.32 7.43-10.75 10.2-19.57-5.59-17.55-12.41-26.13c-6.95-8.74-16.92-17-28.81-17.68s-14.49 2.68-22.88 10.1c-4.53 4-14.42 3.26-22.59 1.71a16 16 0 01-13-16 147.37 147.37 0 012.49-24.79c1.93-9.83 28.1-12.91 36.47-10.41 7.15 2.13 12.66 9.69 12.82 2.23.08-4 1.94-13.8-5-22.28-5.18-6.37-7.92-15-1.33-19.87 14-10.33 38.45-18 39.55-8.54s-2.51 28.28 8.15 28.94c10.22.64 19.25 3.4 23.9-2.53 10.54-13.44 22.57-35.22 37.63-35.16 15.25.07 27.77-.14 40.81-1.59 14.31-1.59 20.85 11.69 25.29 23.2s20.49 21.58 37.46 31.94c4.83 3 9.74 2.57 14.57.88A427.36 427.36 0 01819.22 567z"/><path class="cls-6" d="M839.16 558.45l-.36 1.16a30.36 30.36 0 00-22.08 9.39c-18 18.59-15.73 8.21-43.05 14.77s-24 21.73-28.87 37.33-36.46 22.9-50.8 23.38-33.54 32.9-36.27 51.25-25.57 17.17-44 27.56-35.68 33.19-48.65 42.26-30.58 10.57-44.11 2.32S503.56 730 504.09 706s7-48.25 20.72-69.22 10.91-18.74 19.71-56.38-12-58.29-24.33-67.2-38.23-10-47.59-22-10.48-24.49-5-61.13 24.34-38.18 46.22-47.94c21.71-9.68 52.15-24.14 77.53-21.25s38.62 15.16 49.8 27.76 11.5 30.87 21.06 35.94 20.17 3.3 29.39 9.23 13.94 13.47 24.33 15.7 8.67-11.39 9.76-18.14-8.36-8.68-20-13.43-13.3-9.15-14.34-18.56-10.5-5.38-14.86-10.78-6.87 2.34-8.27 10.57a3.19 3.19 0 01-2.26 2.39 2.92 2.92 0 01-3.91-2.28l-.07-.46a2.9 2.9 0 00-1.91-2.29l-5.79-2a1.65 1.65 0 01-.47-2.84c3-2.36 7.72-6.9 9.57-12.8 2.76-8.76-5.59-17.55-12.41-26.12-7-8.74-16.92-17-28.81-17.69s-14.5 2.68-22.88 10.1c-3.88 3.45-12.8 3.81-21.3 3.19A19.9 19.9 0 01559.55 327c.62-8.19 1.71-16.67 3.6-19.86 5.13-8.61 29.06-1.38 37.42 1.12 7.15 2.14 14.72-2.95 14.88-10.41.08-4 1.94-13.79-5-22.27-5.18-6.38-7.92-15-1.33-19.87 14.05-10.34 25.4.1 26.5 9.54s10.54 10.19 21.2 10.86c10.22.64 12.71-6.36 17.48-12.19 9.8-12 14.27-16.88 29.49-17.12s40.54-.41 52-4.85 24.17 6.56 28.61 18.07 20.6 21.56 37.6 31.92c4.82 3 9.73 2.58 14.57.88a427.46 427.46 0 012.59 265.63z"/><path class="cls-7" d="M565.1 765.55c8.24-5.76 18.22-17.07 29.13-27.22-11.58-16.21-38-17-51.74-32.33-17.34-19.39-6.5-51.23-13.57-75.66-1.18 1.9-2.54 4-4.11 6.42-13.68 21-20.24 45.14-20.72 69.22s3.34 53.57 16.9 61.89 31.19 6.77 44.11-2.32z"/><path class="cls-8" d="M686 724.77c-9-5.53-9.47-2-18.22 3.36s-20.53 10.72-22.21 19.28-4.85 18.66 4.23 15.46 9.56-11.13 20.82-11.63 28.89-18.17 15.38-26.47z"/><path class="cls-7" d="M116.08 175.77c21.21-23.44 67-34.6 81.49-67 4.94-11 5.09-26.79 3.15-42.82A429 429 0 0076.59 184.33a142 142 0 006.84 35.1 67.73 67.73 0 0010.63 20.32c.94-14.52 5.11-45.28 22.02-63.98z"/><path class="cls-2" d="M620.2 225.5a13 13 0 003.52 19 24.22 24.22 0 0011.42 3.36c15.9.79 30.21-12.36 41.07-21.3 9-7.42-22.67-15.67-35.77-15.37-2.83.07-15.81 8.53-17.53 10.78z"/><path class="cls-8" d="M631.6 218.38a13 13 0 003.51 19 24.3 24.3 0 0011.42 3.36c15.9.79 27.43-11.13 37-21.46 7.87-8.53-28.9-8.4-42-8.09a9.29 9.29 0 00-7.18 3.66z"/><path class="cls-2" d="M283.39 624c5.26 6.26 10.57 12.55 17 17.65s14 9 22.16 9.63a34.93 34.93 0 0017.19-3.21c2.18-1 4.37-2.3 5.48-4.41 1.24-2.39.82-5.33-.2-7.82-2.28-5.54-7.26-9.61-12.72-12.07s-11.43-3.49-17.33-4.5l-22.32-3.83a18.36 18.36 0 00-6.72-.32c-2.21.45-4.37 1.92-4.95 4.1-.48 1.81.17 3.71.95 5.4a35.79 35.79 0 0020.05 18.5c5.94 2.17 12.34 2.69 18.65 3.14a15.31 15.31 0 006.15-.4c1.95-.69 3.7-2.41 3.74-4.48 0-2.55-2.36-4.57-2.63-7.1a9.73 9.73 0 005.11 2.34 3.54 3.54 0 00-1.76-3.53 3 3 0 002.1 2.88 6 6 0 00-3.23-4.5 1.77 1.77 0 00.76 2.54c-2.22-3.59-8.26-3.8-10.72-.36-1.85-1.69-3.77-3.42-6.13-4.23s-5.32-.49-6.9 1.46l-8.22-3.07a3.64 3.64 0 00.11 3.29l-5.1-5.87 4.33 7.2a17.47 17.47 0 01-8.74-9.56 55.21 55.21 0 0017.62 12.6 4.52 4.52 0 00-1.65-3.72 35.9 35.9 0 0013.3 7.2 17.4 17.4 0 00-8.24-4 15.78 15.78 0 005.88 3.4c2.22.53 4.9-.14 6-2.14a8.09 8.09 0 0010.89 1.18l4.51 2.77c1.08-.42.48-2.06-.31-2.92-10.23-11-25.92-14.76-40.64-17.94l17.51 7.77-24-9.93a9.24 9.24 0 00-4.4-1c-3 .31-5 3.53-4.94 6.53s1.59 5.74 3.22 8.26c5.62 8.63 12.95 16.38 22.11 21.1s20.29 6.14 29.91 2.45c3.79-1.45 7.43-3.82 9.33-7.42"/><path class="cls-2" d="M279.91 627.51c5.44 6.46 10.93 13 17.63 18.17 6.93 5.4 14.72 9.3 23.51 10.4a37 37 0 0013.33-.93 31.17 31.17 0 0012.09-5.47c8-6.43 3.6-17.82-2.48-23.82s-14.33-8.77-22.53-10.37c-8.9-1.73-17.88-3.11-26.81-4.64-4.72-.81-10-1.66-14.19 1.34a10.2 10.2 0 00-4.36 6.17 13.75 13.75 0 001.36 8.38 40.32 40.32 0 0014.75 17c7.32 4.82 15.86 6.41 24.45 7.16 4.5.39 9.37 1.08 13.52-1.2A10.47 10.47 0 00335 644a9.8 9.8 0 00-.78-7.42c-.35-.75-.77-1.46-1.16-2.19-.08-.15-.15-.32-.24-.47-.29-.5.18.4.15.38-.23-.14-.29-1.09-.33-1.34l-8.23 4.79a15 15 0 007.28 3.61c3.35.52 5.93-1.31 6.23-4.75a8.53 8.53 0 00-4.2-7.78 5 5 0 00-7.4 4.25 8.18 8.18 0 005.71 7.62 4.86 4.86 0 004.79-1.26 5.14 5.14 0 001.27-4.79 10.85 10.85 0 00-5.5-7.44 5 5 0 00-6.73 1.77 6.77 6.77 0 002.52 9.27 4.92 4.92 0 006.74-6.73 11.64 11.64 0 00-19.22-.37l7.73-1c-2.68-2.44-5.64-5-9.3-5.77s-8.06 0-10.69 3l4.79-1.27-8.22-3.07a4.89 4.89 0 00-3.79.5 5.77 5.77 0 00-2.26 2.94 8.61 8.61 0 00.6 7.08l7.73-6-5.1-5.87a4.93 4.93 0 00-7.73 6l4.33 7.19 6.73-6.73a21.23 21.23 0 01-2.6-1.55c-.44-.33-.41-.3.09.07l-.57-.49c-.38-.34-.74-.69-1.08-1.06-.16-.17-1.29-1.42-.45-.46a8.94 8.94 0 01-.86-1.25c-.27-.43-.51-.87-.74-1.32q-.18-.35-.33-.69c.24.6.27.64.06.13l-8.24 4.85a59.76 59.76 0 0018.62 13.37 5.14 5.14 0 005 0 5 5 0 002.38-4.25 9.55 9.55 0 00-3.1-7.2l-7 7a42.57 42.57 0 0015.47 8.46 5 5 0 005.56-2.26c1-1.82.93-4.53-.77-6a22.86 22.86 0 00-10.42-5.21 5 5 0 00-5.55 2.26c-.94 1.78-1 4.59.77 6 3.11 2.45 6.24 4.71 10.33 5a10.09 10.09 0 009.28-4.72l-7.73 1c4 4.65 11.93 5.67 16.85 2h-5l4.52 2.77a5 5 0 005 0c2.94-1.62 3.61-5.11 2.38-8a14.24 14.24 0 00-3.74-4.68 49.54 49.54 0 00-9-6.61 82.78 82.78 0 00-20.05-7.8c-3.87-1-7.78-1.9-11.69-2.75a5 5 0 00-5.81 2.85c-.86 2-.22 5.15 2 6.15l17.51 7.77 3.79-9-13.85-5.73-6.93-2.86c-2.49-1-4.88-2.19-7.59-2.49-5.17-.58-9.74 3.54-10.86 8.42-1.16 5.09 1 9.89 3.76 14.06 9.71 14.77 24.49 26.92 42.82 27.71 9.69.42 21.81-2.8 26.81-11.91a4.92 4.92 0 10-8.5-5c-.18.33-.37.66-.57 1a6.37 6.37 0 01-.44.62s.57-.64.18-.27-.51.56-.77.82l-.42.4s-.9.81-.37.34-.42.3-.58.41c-.37.25-.75.49-1.13.71a9.39 9.39 0 01-2.41 1.21s.83-.31.3-.13c-.2.06-.39.14-.58.21q-.58.23-1.2.42c-.93.3-1.88.55-2.84.76-.48.11-1 .2-1.44.28l-.63.11c.06 0 .85-.1.27 0-1 .1-1.95.19-2.94.22a40.15 40.15 0 01-5.69-.26c.89.1 0 0-.37-.07s-.84-.14-1.25-.23c-1-.19-1.94-.42-2.9-.69s-1.77-.52-2.64-.83l-1.39-.52c-.07 0-.73-.28-.2-.07s-.3-.13-.39-.17a43.72 43.72 0 01-4.93-2.6 49.78 49.78 0 01-4.35-3c.85.64-.24-.2-.43-.36l-.94-.79c-.72-.61-1.42-1.25-2.11-1.9q-2-1.89-3.82-4c-.58-.66-1.15-1.34-1.71-2l-.77-1c-.36-.42.1.15.14.2l-.62-.82q-1.59-2.13-3-4.36c-.5-.78-1-1.58-1.43-2.41-.2-.38-.39-.77-.57-1.16.38.84.08.18 0 0s-.18-.54-.26-.81-.23-1.24-.14-.35v-1.35c0-.45 0 .42-.07.47a2.45 2.45 0 00.11-.5c0-.16.09-.32.14-.49.23-.85-.35.56 0 .09a4.51 4.51 0 11.24-.49c-.34.77.25-.6.5-.47 0 0-.75.64-.35.3l.42-.24c-.06-.09-.87.51-.43.21.23-.16.73 0 .21-.06-.87-.14.73.18 0 .05-.56-.1.36.12.45.15.52.15 1 .35 1.52.55 1.15.46 2.28.94 3.43 1.41l6.92 2.87 13.99 5.75c2.26.94 5-.83 5.81-2.85s.23-5.15-2-6.14l-17.51-7.77-3.8 9c7.62 1.65 15.28 3.38 22.55 6.24l1.26.51c-1.18-.48.4.18.61.28.82.37 1.63.75 2.44 1.16a49.38 49.38 0 015 2.87q1.11.74 2.19 1.53c.44.33.41.3-.09-.07l.6.47c.4.33.79.66 1.17 1 .67.59 1.33 1.21 2 1.85.25.26 1.25 1.58.4.33.26.47.23.36-.08-.33a3.93 3.93 0 011.79-4h5l-4.51-2.77a4.82 4.82 0 00-5 0 12.7 12.7 0 01-1.09.71c-.48.23-.38.2.29-.1l-.62.2-.64.14c.78-.09.89-.11.34-.06h-1.3c.76.12.88.13.34 0-.22 0-.43-.1-.64-.16s-.41-.12-.62-.2c.67.3.77.33.29.1a6.32 6.32 0 01-.56-.33c-.44-.29-.37-.23.21.2-.14 0-.82-.82-.92-.93-2.12-2.47-6.19-1.53-7.73 1-.28.45-.21.37.21-.22-.38.36-.29.31.27-.16a5 5 0 01-.55.33q1-.4.27-.15a3.59 3.59 0 01-.47.12c-.38.07-.22 0 .49-.06h-.67c-.55 0-.44 0 .33.07-.14.1-1.87-.6-.75-.13a8.09 8.09 0 01-1.13-.59c-.5-.29-1-.61-1.44-.94l-.69-.52c.43.34.42.33 0 0l-4.79 8.23a17.85 17.85 0 012 .5c.33.1.66.24 1 .34.7.22-1-.5.18.08.56.29 1.12.58 1.66.91l.87.58c.87.57-.54-.46.33.27l4.79-8.23c-1.15-.34-2.27-.75-3.4-1.18-.69-.26.68.33 0 0l-.77-.35c-.57-.27-1.14-.56-1.7-.86-1-.54-2-1.13-2.9-1.75-.52-.36-1-.73-1.55-1.11s.55.48 0 0l-.82-.67c-2-1.67-5.06-2.07-7 0-1.72 1.87-2.05 5.13 0 7a4.59 4.59 0 01.55.53c-.37-.49-.42-.5-.14 0-.23-.59-.27-.62-.11-.09-.07-.67-.1-.73-.09-.16l7.41-4.25a55.9 55.9 0 01-9.26-5.31c-.35-.24-.7-.5-1-.75-1.14-.83.74.61-.36-.27-.67-.54-1.33-1.08-2-1.64q-2.1-1.83-4-3.86a5 5 0 00-6-.77c-1.71 1.1-3.05 3.49-2.26 5.56a22.73 22.73 0 0011 12.49 4.92 4.92 0 006.74-6.73l-4.33-7.19-7.73 6 5.1 5.87c1.6 1.85 4.64 1.79 6.46.38a5 5 0 001.27-6.34c.2.54.25.64.15.29s-.06-.25.07.36l-.08.56a3.61 3.61 0 01.25-.72l-6.05 3.44 8.21 3.07a4.79 4.79 0 004.79-1.26c.05-.06.47-.44.46-.49 0 .16-.88.51-.19.18s-.7.14-.11 0c.21-.05.45-.11.65-.18.57-.18-.89 0-.29 0h.7c.23 0 .66.24.2 0-.36-.05-.41-.05-.14 0a4.07 4.07 0 01.5.13 6.84 6.84 0 01.72.25c-.43-.17-.47-.23-.05 0s.94.57 1.41.88.35.28 0 0l.81.67c.47.41.94.83 1.4 1.26 2.56 2.33 5.78 1.59 7.73-1-.13.17-.67.76-.2.33.7-.65-.71.38-.23.13.21-.11 1.29-.7.55-.37-.89.4.73-.1.79-.16-.12.11-1.16.06-.44.06h.73c.18 0 .88.08.07 0s-.1 0 .07 0l.69.2c.71.2-.33 0-.37-.16 0 .07.43.25.5.28.62.31-.27-.08-.3-.26a4 4 0 00.51.49c.4.24-.64-.93-.15-.18l6.73-6.74a3.19 3.19 0 011 4.2l-6.74 1.76a6.44 6.44 0 01.63.36l-.43-.33a4.89 4.89 0 01.52.5c-.35-.49-.42-.59-.22-.29s.53 1.2.34.52.11.66.13.8l6.06-6.06a2.36 2.36 0 011.32 1c-.49-.69.18.52.19.85l-7.41 4.25c-.5-.46-.56-.5-.17-.13-.39-.55-.45-.6-.17-.14a1.75 1.75 0 01-.31-1.15 3.26 3.26 0 010 .7l6.23-4.75a10.19 10.19 0 01-1.2-.24c-.19 0-1.35-.53-.35 0-.37-.18-.71-.4-1.08-.58-.89-.43.51.49-.31-.2a5.06 5.06 0 00-6-.77 5.22 5.22 0 00-2.26 5.56 14.39 14.39 0 001.93 4.72c.16.31.32.62.49.93.55 1-.28-1 0 .1s.15-1.06 0 0c.13-.74.14-.84 0-.31.31-.64.34-.73.09-.25-.63 1 .78-.72-.06.09s.91-.41-.1.1l-.3.17c-.49.24-.41.22.22-.07-.22.22-1 .28-1.28.34 1.11-.24-.25 0-.44 0h-1.34c-1 0-2-.12-2.94-.19-1.77-.13-3.54-.27-5.31-.47l-1.39-.16c-1.51-.18 1 .17-.52-.07-1.07-.18-2.13-.35-3.19-.57a43.51 43.51 0 01-5.34-1.46l-1.14-.42c-.23-.09-1.4-.41-.22-.09a12.18 12.18 0 01-2.38-1.16 34.57 34.57 0 01-3.54-2.17c-.31-.22-.62-.44-.92-.67-1-.74.77.67-.2-.16-.67-.57-1.35-1.13-2-1.74a37.36 37.36 0 01-3.11-3.31c-.13-.16-1-1.11-.16-.19a9.8 9.8 0 01-.67-.92c-.51-.72-1-1.46-1.45-2.22a27 27 0 01-1.94-3.74c.41 1-.08-.33-.11-.46s-.16-1.48-.14-.37v-.43c0-.58 0-.56 0 0 .18-.52.14-.45-.1.2.28-.45.22-.41-.19.13a2.55 2.55 0 01.75-.75l-.42.35c.2-.13.41-.26.62-.37.93-.58-.91.16.16 0 .12 0 1.28-.28.34-.14a13.3 13.3 0 012.89 0c1.55.12-.91-.19.62.09.64.12 1.28.22 1.93.33 7.87 1.35 15.74 2.67 23.61 4.06a80.81 80.81 0 0110.77 2.48c.88.28 1.73.6 2.6.92 1.4.51-.84-.42.52.21l1 .49a35.74 35.74 0 014.28 2.58c1.06.72-.75-.67.22.17.29.25.59.49.87.74.47.43.93.87 1.37 1.33.26.28.51.56.76.85s1 1 .17.19a8.69 8.69 0 011.42 2.24c.19.33.35.67.52 1 .54 1.1-.25-1 .09.28.11.39.25.78.35 1.17s.49 1.45.11.3a4.89 4.89 0 010 1.21c.07 1.14.35-.8 0 .27-.1.28-.62 1.22-.06.31a6.82 6.82 0 01-.39.64c.41-.49.43-.53.08-.12-.24.21-.51.63-.82.76 1-.44 0 0-.22.12a18.09 18.09 0 01-1.67.92l-1.1.51c.95-.43-.41.17-.5.2-1 .38-2 .73-3 1s-1.75.48-2.64.67c-.44.09-.89.18-1.34.25-.12 0-1.6.21-.48.09a33.86 33.86 0 01-5.87.16l-1.3-.11c-.57-.07-.56-.07.06 0l-.83-.13c-.83-.15-1.65-.32-2.47-.53s-1.89-.52-2.82-.84l-1.19-.43-.78-.31c.52.23.52.23 0 0a49.58 49.58 0 01-5.26-2.75 58.97 58.97 0 01-2.49-1.62l-1-.74c-.15-.11-1.56-1.19-.69-.51-6.55-5.16-11.95-11.55-17.3-17.91-1.66-2-5.27-1.84-7 0a5 5 0 000 7z"/><path class="cls-7" d="M162.52 556.56c10.28-8.76 14.09-22.83 22.14-33.67 1.62-2.18 3.78-4.4 6.49-4.38 3.73 0 5.94 4.07 7.25 7.56 3.85 10.27 6.8 22.26 1.34 31.76-2.86 5-7.64 8.49-12.43 11.61a169.32 169.32 0 01-16.76 9.56c-2.75 1.36-5.61 2.68-8.68 2.91s-6.39-.81-8.14-3.34c-3.11-4.53.19-10.58 3.42-15l8-11.1"/><path class="cls-2" d="M235.8 598.84c-5.58 6.42-9.76 23.44-.55 30.14s-11.44 25.4-11.44 25.4l-35.45-38.79 24.28-20.65zm217.96 135.21c8.79 1.26 25.11-9.77 25.39-20.65s16.85-7.95 16.85-7.95l-6.7 43.95-43.12 2.93z"/><path class="cls-7" d="M836.53 292.82c-4.84 1.7-9.75 2.09-14.57-.88-2.21-1.35-4.41-2.7-6.57-4a110 110 0 00-18.06 17.26c-7 8.18-13.47 17.5-14.82 28.18-1.74 13.88 5.36 27.16 12.22 39.34l17.52 31.07c5.62 10 11.38 20.46 11.57 31.89.13 7.58-2.23 15-5 22-20.5 52.62-65.2 95.25-118.74 113.22-10.84 3.64-22.51 6.6-30.73 14.55-7.93 7.67-11.43 19-11.78 30s2.15 21.92 4.62 32.67q2.55 11.12 5.11 22.23c7.52-13.51 18-25.56 26.69-25.92 14.34-.52 45.88-7.76 50.8-23.42s1.6-30.75 28.87-37.33 25.09 3.82 43.05-14.77a30.36 30.36 0 0122.08-9.35l.36-1.16a427.46 427.46 0 00-2.62-265.58z"/></svg>