<svg xmlns="http://www.w3.org/2000/svg" viewBox="0 0 1000 594.47"><defs><style>.cls-1{fill:#eceff1}.cls-2{fill:#b0bec5}.cls-3{fill:#7b8e98}.cls-4{fill:#dae1e6}</style></defs><path class="cls-1" d="M972.43 68c-36.31-20.65-95-20-131.06.76L389.61 329.55c-13.55 7.82-33.13 11.12-51.79 8.6-73.23-9.87-153.37 1.67-210.45 34.63-22.84 13.22-39.71 28.54-50.63 44.94v-1.77l-62.66 83.49 61.57 5.28a29.34 29.34 0 0017.19-3.83l128.78-74.35c5.1-3 12.5-4.14 19.51-3.14l81.49 11.6c7.49 1.06 13.32 4.44 15.14 8.76l19.79 47.06c1.7 4-.37 8.3-5.46 11.24L215.24 581c-4.09 2.36-2.39 6.39 3.12 7.39 77.5 14.16 165.67 3.51 227.12-32 57.06-33 77.06-79.18 60-121.45-4.36-10.79 1.3-22.12 14.88-30l452.56-261.2c36.27-20.94 36.08-54.95-.49-75.74z"/><path class="cls-2" d="M889.8 14.77v37.45c-35.28-10.92-80.41-7.52-110.14 9.65L327.91 322.69c-13.55 7.82-33.14 11.12-51.8 8.6-73.23-9.87-153.36 1.66-210.45 34.62A185.55 185.55 0 0040.74 383l1.62-16L0 424.23v35.24a81.81 81.81 0 0010.3 37.35c1.73 3.19 8.72 4.18 12.81 1.81l136.77-79c5.11-2.95 12.51-4.14 19.52-3.15l81.49 11.56c7.48 1.06 13.32 4.44 15.13 8.76l8.38 19.9-133.06 83.37v36.62a2.76 2.76 0 000 1.18c.37 1.61 2.25 3.1 5.31 3.66 77.5 14.16 165.66 3.51 227.12-32 42.69-24.65 64.63-56.75 65.82-89.05.07-1.68.06-3.37 0-5.05V405a42.32 42.32 0 019-6.87l452.58-261.3c18.18-10.49 27.2-24.27 27.07-38V60.74z"/><path class="cls-3" d="M458.64 398.17l3.48-2v-77.66h-96.51V559q9.4-4.37 18.17-9.41c42.69-24.65 64.63-56.75 65.82-89.05.07-1.68.06-3.37 0-5.05V405a42.63 42.63 0 019.04-6.83z"/><path class="cls-1" d="M14.08 407.52L0 423.75v35.72a81.81 81.81 0 0010.3 37.35 6.16 6.16 0 003.75 2.61z"/><path class="cls-2" d="M938.29 98.85v-36L913 49.12l-23.2 14.1v23.35A142.43 142.43 0 00860.61 81L419 360.28l28.47 37.8 2.18 7a61.06 61.06 0 019-6.87l452.58-261.3c18.17-10.53 27.19-24.31 27.06-38.06z"/><path class="cls-3" d="M327.91 357c-13.55 7.82-33.14 11.12-51.8 8.61a387.83 387.83 0 00-106.15.48v50.36a35.76 35.76 0 019.47 0l81.49 11.56c7.48 1.06 13.32 4.44 15.13 8.76l10 23.68h46.87V354.17z"/><path class="cls-4" d="M779.66 24.27L327.91 285.09c-13.55 7.82-33.14 11.12-51.8 8.6-73.23-9.87-153.36 1.66-210.45 34.62-61.14 35.31-79.57 86.21-55.33 130.92 1.73 3.19 8.72 4.18 12.81 1.81l136.77-79c5.11-2.95 12.51-4.14 19.52-3.15l81.49 11.56c7.48 1.06 13.32 4.44 15.13 8.76l18.08 43s1.35 12.39-3.75 15.33l-136.84 79c-4.09 2.36-2.39 6.38 3.12 7.39 77.5 14.16 165.66 3.51 227.12-32 57.06-33 77.05-79.19 60-121.45-4.36-10.79 1.31-22.12 14.88-30L911.22 99.27c36.27-20.93 36.1-54.94-.5-75.76-36.31-20.66-95.01-20.05-131.06.76z"/><path class="cls-4" d="M151.32 539.3l3.91-14.66 17.05-4.49-5.76 18.7-15.2.45z"/><path class="cls-4" d="M776.14 15.74L329.75 273.47c-13.39 7.73-32.74 11-51.18 8.5-72.36-9.76-151.55 1.65-208 34.21C10.19 351.07-8 401.37 15.93 445.55c1.71 3.15 8.62 4.13 12.67 1.79l135.15-78c5-2.91 12.35-4.09 19.28-3.11l80.53 11.42c7.39 1.05 13.15 4.39 14.95 8.66l19.56 46.5c1.67 4-.37 8.2-5.4 11.1L157.44 522c-4 2.34-2.36 6.32 3.09 7.31 76.58 14 163.7 3.47 224.42-31.59 56.39-32.56 76.14-78.25 59.28-120-4.31-10.66 1.29-21.86 14.7-29.6L906.14 89.86C942 69.17 941.81 35.57 905.65 15c-35.88-20.42-93.89-19.82-129.51.74z"/><path class="cls-2" d="M724.57 87L383.09 282.86c-14.25 8.23-12.47 22.6 4 32.1 16.45 9.5 41.34 10.53 55.59 2.3l341.47-195.84c14.25-8.23 12.47-22.6-4-32.1-16.44-9.5-41.33-10.53-55.58-2.32z"/><path d="M780 104c-16.46-9.5-41.35-10.53-55.6-2.31l-341.34 196a21.2 21.2 0 00-7.41 6.68c2.2 3.78 6 7.41 11.4 10.53 16.45 9.5 41.34 10.53 55.59 2.3l341.55-195.82a21.18 21.18 0 007.4-6.69c-2.19-3.77-6.17-7.55-11.59-10.69zM372.27 347.94l-2.11 1.22c-7.82 4.52-21.49 3.95-30.52-1.26l-10.46-6c-9-5.22-10-13.11-2.19-17.62l2.11-1.28c7.82-4.52 21.49-3.95 30.52 1.26l10.46 6c9.04 5.28 10.02 13.17 2.19 17.68z" fill="#cfd8dc"/><path class="cls-3" d="M898.55 45c-3.63-1.86-5.54-4.61-5.14-7.4.7-4.85-5.48-9.12-13.87-9.59-4.84-.27-9.17-1.84-11.69-4.24-4.37-4.16-13.72-5.52-21-3.05a25.69 25.69 0 01-13.77.54c-7.77-1.89-16.72.19-20.08 4.65-1.94 2.57-5.87 4.46-10.6 5.11-8.2 1.11-13.33 5.83-11.51 10.58 1.05 2.74-.2 5.6-3.37 7.72C782 53 782.68 58.6 789 61.82a10.21 10.21 0 014.5 4.06 18.45 18.45 0 018.92-3.44c4.73-.64 8.66-2.53 10.6-5.1 3.36-4.46 12.31-6.54 20.08-4.66a25.59 25.59 0 0013.77-.53c7.27-2.47 16.62-1.11 21 3.05 2.52 2.4 6.85 4 11.69 4.24 8.39.47 14.57 4.74 13.87 9.59a5.44 5.44 0 00.64 3.33c2.5-2 3.58-4.56 2.59-7.14-1-2.74.2-5.6 3.37-7.73 5.48-3.68 4.83-9.24-1.48-12.49z"/><path class="cls-1" d="M808 78.81c4.84.27 9.17 1.84 11.69 4.24 4.37 4.16 13.72 5.52 21 3a25.69 25.69 0 0113.77-.54c7.77 1.88 16.72-.19 20.08-4.65 1.94-2.57 5.87-4.47 10.6-5.11a18.36 18.36 0 008.92-3.44 5.44 5.44 0 01-.64-3.33c.7-4.85-5.48-9.12-13.87-9.59-4.84-.27-9.17-1.84-11.69-4.24-4.37-4.16-13.72-5.52-21-3.05a25.59 25.59 0 01-13.77.53c-7.77-1.88-16.72.2-20.08 4.66-1.94 2.57-5.87 4.46-10.6 5.1a18.45 18.45 0 00-8.92 3.44 5.49 5.49 0 01.64 3.34c-.7 4.9 5.48 9.17 13.87 9.64z"/></svg>